<?xml version="1.0" encoding="UTF-8" standalone="no"?>
<!-- Created with Inkscape (http://www.inkscape.org/) -->

<svg
   width="43.398743mm"
   height="73.69725mm"
   viewBox="0 0 43.398743 73.697246"
   version="1.1"
   id="svg5"
   xml:space="preserve"
   inkscape:version="1.2.2 (732a01da63, 2022-12-09)"
   sodipodi:docname="5176251.svg"
   xmlns:inkscape="http://www.inkscape.org/namespaces/inkscape"
   xmlns:sodipodi="http://sodipodi.sourceforge.net/DTD/sodipodi-0.dtd"
   xmlns="http://www.w3.org/2000/svg"
   xmlns:svg="http://www.w3.org/2000/svg"><sodipodi:namedview
     id="namedview7"
     pagecolor="#ffffff"
     bordercolor="#111111"
     borderopacity="1"
     inkscape:showpageshadow="0"
     inkscape:pageopacity="0"
     inkscape:pagecheckerboard="1"
     inkscape:deskcolor="#d1d1d1"
     inkscape:document-units="mm"
     showgrid="false"
     inkscape:zoom="1.8731256"
     inkscape:cx="593.66013"
     inkscape:cy="447.11363"
     inkscape:window-width="1701"
     inkscape:window-height="1128"
     inkscape:window-x="108"
     inkscape:window-y="0"
     inkscape:window-maximized="0"
     inkscape:current-layer="svg5" /><defs
     id="defs2"><clipPath
       clipPathUnits="userSpaceOnUse"
       id="clipPath1193"><path
         d="M 0,500 H 600 V 0 H 0 Z"
         id="path1191" /></clipPath><clipPath
       clipPathUnits="userSpaceOnUse"
       id="clipPath1201"><path
         d="M 507.174,329.974 H 551.04 V 270.62 h -43.866 z"
         id="path1199" /></clipPath><clipPath
       clipPathUnits="userSpaceOnUse"
       id="clipPath1231"><path
         d="m 356.331,197.551 h 66.09 v -34.318 h -66.09 z"
         id="path1229" /></clipPath><clipPath
       clipPathUnits="userSpaceOnUse"
       id="clipPath1255"><path
         d="m 369.187,158.434 h 19.977 v -41.418 h -19.977 z"
         id="path1253" /></clipPath><clipPath
       clipPathUnits="userSpaceOnUse"
       id="clipPath1279"><path
         d="m 383.375,111.677 h 19.811 V 89.2708 h -19.811 z"
         id="path1277" /></clipPath><clipPath
       clipPathUnits="userSpaceOnUse"
       id="clipPath1303"><path
         d="m 298.721,197.556 h 27.822 v -47.508 h -27.822 z"
         id="path1301" /></clipPath><clipPath
       clipPathUnits="userSpaceOnUse"
       id="clipPath1327"><path
         d="m 307.458,136.109 h 25.489 V 95.2871 h -25.489 z"
         id="path1325" /></clipPath><clipPath
       clipPathUnits="userSpaceOnUse"
       id="clipPath2043"><path
         d="m 466.671,137.936 v -24.098 c 0,-10.6 8.673,-19.273 19.273,-19.273 v 0 h 21.252 c 10.601,0 19.273,8.673 19.273,19.273 v 0 24.098 z"
         id="path2041" /></clipPath><clipPath
       clipPathUnits="userSpaceOnUse"
       id="clipPath2059"><path
         d="M 0,500 H 600 V 0 H 0 Z"
         id="path2057" /></clipPath><clipPath
       clipPathUnits="userSpaceOnUse"
       id="clipPath2067"><path
         d="M 493.528,137.936 H 526.47 V 94.5646 h -32.942 z"
         id="path2065" /></clipPath><clipPath
       clipPathUnits="userSpaceOnUse"
       id="clipPath3675"><g
         id="g3679"
         style="stroke-width:0.352777"
         transform="matrix(2.8346458,0,0,-2.8346457,-1185.2774,460.78421)"><path
           d="M 220,0 H 431.66666 V 176.38889 H 220 Z"
           id="path3677"
           style="stroke-width:0.352777" /></g></clipPath></defs><g
     inkscape:groupmode="layer"
     id="layer1"
     inkscape:label="Layer 1"
     transform="translate(-154.05537,-78.194182)"
     sodipodi:insensitive="true"
     style="display:none"><rect
       style="fill:#cccccc;fill-opacity:1;stroke:none;stroke-width:1;stroke-dasharray:none"
       id="rect3995"
       width="252.55914"
       height="192.38565"
       x="-25.70792"
       y="-16.102764" /></g><g
     id="g1187"
     transform="matrix(0.35277776,0,0,-0.35277778,-160.87911,85.945978)"><g
       id="g1189"
       clip-path="url(#clipPath1193)"><g
         id="g1195"><g
           id="g1197" /><g
           id="g1209"><g
             clip-path="url(#clipPath1201)"
             opacity="0.100006"
             id="g1207"><g
               transform="translate(534.2021,329.9741)"
               id="g1205"><path
                 d="m 0,0 -5.859,-38.185 c 0,-11.643 -9.527,-21.169 -21.169,-21.169 h 16.838 c 11.642,0 21.169,9.526 21.169,21.169 L 16.838,0 Z"
                 style="fill:#4f2883;fill-opacity:1;fill-rule:nonzero;stroke:none"
                 id="path1203" /></g></g></g></g><path
         d="m 554.095,323.874 h -82.336 v 7.272 h 82.336 z"
         style="fill:#7ebab3;fill-opacity:1;fill-rule:nonzero;stroke:none"
         id="path1211" /><g
         id="g1213"
         transform="translate(414.5283,39.2158)"><path
           d="m 0,0 c 0,-2.482 -23.644,-4.495 -52.81,-4.495 -29.167,0 -52.81,2.013 -52.81,4.495 0,2.482 23.643,4.495 52.81,4.495 C -23.644,4.495 0,2.482 0,0"
           style="fill:#f5f2ed;fill-opacity:1;fill-rule:nonzero;stroke:none"
           id="path1215" /></g><g
         id="g1217"
         transform="translate(376.6426,200.4326)"><path
           d="m 0,0 c -2.614,0.926 -5.593,1.149 -8.332,0.896 -5.911,-0.548 -10.82,-4 -13.773,-9.096 -4.979,-8.591 -3.957,-18.794 -2.927,-28.262 1.362,-12.535 3.755,-24.964 6.348,-37.294 2.504,-11.899 5.293,-23.739 8.257,-35.532 1.516,-6.034 2.873,-12.187 4.728,-18.13 0.027,-0.087 0.049,-0.176 0.072,-0.264 0.251,-0.909 1.728,-0.719 1.474,0.202 -1.301,4.723 -2.53,9.468 -3.743,14.215 -2.795,10.95 -5.439,21.94 -7.866,32.978 -2.699,12.28 -5.186,24.633 -6.928,37.089 -0.729,5.211 -1.336,10.452 -1.572,15.711 -0.167,3.738 -0.234,7.62 0.575,11.297 1.377,6.255 5.228,12.481 11.47,14.728 3.478,1.252 7.519,1.257 11.038,0.275 0.204,-0.056 0.408,-0.116 0.609,-0.186 C 0.33,-1.692 0.903,-0.319 0,0"
           style="fill:#1d7256;fill-opacity:1;fill-rule:nonzero;stroke:none"
           id="path1219" /></g><g
         id="g1221"
         transform="translate(375.1338,181.1738)"><path
           d="M 0,0 C 0.156,2.703 1.328,4.833 2.618,4.759 3.908,4.685 4.828,2.434 4.672,-0.269 4.517,-2.972 3.344,-5.102 2.054,-5.027 0.764,-4.953 -0.155,-2.702 0,0 m 29.815,-4.806 c -0.154,1.274 0.214,2.365 0.822,2.438 0.608,0.074 1.225,-0.899 1.379,-2.171 0.154,-1.273 -0.214,-2.364 -0.822,-2.438 -0.607,-0.074 -1.224,0.899 -1.379,2.171 m -8.944,16.108 c -0.743,0.814 0.039,2.737 1.746,4.294 1.707,1.557 3.694,2.159 4.437,1.343 0.743,-0.815 -0.038,-2.738 -1.745,-4.294 -1.707,-1.557 -3.695,-2.159 -4.438,-1.343 M -4.372,-0.163 c 3.578,-0.54 -1.244,-8.823 -1.867,-15.575 3.112,-1.17 6.758,-1.952 10.898,-2.203 0.521,4.949 1.641,10.492 4.054,10.947 2.803,0.527 2.262,-5.213 2.71,-10.89 3.321,0.241 6.879,0.795 10.662,1.718 -0.514,3.815 -0.475,7.365 1.197,8.252 2.038,1.08 3.204,-2.403 4.693,-6.571 2.355,0.769 4.785,1.676 7.285,2.731 -0.261,3.087 -0.011,5.719 1.396,6.465 1.615,0.855 2.681,-1.152 3.794,-4.096 2.234,1.085 4.506,2.263 6.837,3.585 -0.657,2.599 -1.38,5.055 -2.141,7.417 -2.896,-1.233 -5.083,-1.852 -5.583,-0.095 -0.435,1.533 1.291,3.534 3.701,5.482 -0.969,2.535 -1.995,4.916 -3.07,7.149 -4.039,-1.809 -7.36,-3.378 -7.99,-1.159 -0.517,1.82 2.019,4.306 5.128,6.574 -1.951,3.37 -4.013,6.322 -6.137,8.887 -4.409,-3.605 -8.178,-7.968 -9.737,-5.578 -1.341,2.056 1.886,6.7 5.098,10.5 -3.046,2.815 -6.133,4.906 -9.131,6.344 C 12.981,34.6 10.338,25.386 7.473,27.596 5.111,29.417 7.854,37.064 9.976,42.023 3.997,42.81 -0.967,40.764 -3.446,36.562 -11.058,23.66 -4.687,16.377 -4.687,16.377 c 0,0 -9.666,-0.439 -13.713,-14.861 -1.319,-4.698 0.639,-9.698 5.343,-13.47 2.113,4.964 5.736,12.235 8.685,11.791"
           style="fill:#1d7256;fill-opacity:1;fill-rule:nonzero;stroke:none"
           id="path1223" /></g><g
         id="g1225"><g
           id="g1227" /><g
           id="g1239"><g
             clip-path="url(#clipPath1231)"
             opacity="0.5"
             id="g1237"><g
               transform="translate(407.1494,176.6348)"
               id="g1235"><path
                 d="M 0,0 C 0.154,-1.273 -0.214,-2.364 -0.821,-2.438 -1.429,-2.512 -2.046,-1.539 -2.2,-0.267 -2.354,1.007 -1.986,2.098 -1.379,2.171 -0.771,2.245 -0.153,1.272 0,0 m -27.344,4.271 c -0.155,-2.704 -1.328,-4.833 -2.618,-4.759 -1.29,0.074 -2.209,2.325 -2.054,5.027 0.157,2.703 1.329,4.833 2.619,4.759 1.29,-0.074 2.21,-2.325 2.053,-5.027 m -23.072,1.784 c -1.318,-4.698 0.64,-9.698 5.344,-13.47 2.112,4.964 5.735,12.235 8.684,11.791 3.578,-0.54 -1.244,-8.823 -1.867,-15.575 3.112,-1.17 6.758,-1.952 10.899,-2.203 0.52,4.949 1.64,10.492 4.053,10.947 2.803,0.527 2.262,-5.213 2.71,-10.89 3.322,0.241 6.879,0.795 10.662,1.718 -0.513,3.815 -0.474,7.365 1.198,8.252 2.038,1.08 3.204,-2.403 4.692,-6.571 2.355,0.769 4.785,1.676 7.285,2.731 -0.261,3.087 -0.011,5.719 1.397,6.465 1.614,0.855 2.68,-1.152 3.794,-4.096 2.233,1.085 4.505,2.263 6.836,3.585 l -51.973,22.177 c 0,0 -9.666,-0.439 -13.714,-14.861"
                 style="fill:#005337;fill-opacity:1;fill-rule:nonzero;stroke:none"
                 id="path1233" /></g></g></g></g><g
         id="g1241"
         transform="translate(393.5215,151.748)"><path
           d="m 0,0 c -4.833,-2.279 -9.147,-6.242 -12.735,-10.104 -9.362,-10.076 -15.084,-23.032 -17.741,-36.431 -2.357,-11.888 -2.437,-24.114 -1.186,-36.136 0.098,-0.942 1.586,-0.953 1.487,0 -1.944,18.684 -0.694,38.366 7.635,55.493 4.349,8.945 10.63,17.207 18.741,23.063 1.436,1.036 2.943,2.073 4.55,2.831 C 1.616,-0.876 0.862,0.406 0,0"
           style="fill:#55a361;fill-opacity:1;fill-rule:nonzero;stroke:none"
           id="path1243" /></g><g
         id="g1245"
         transform="translate(379.9541,146.9238)"><path
           d="M 0,0 C 1.679,0.367 3.183,0.016 3.357,-0.786 3.533,-1.588 2.314,-2.535 0.636,-2.903 -1.044,-3.271 -2.547,-2.919 -2.723,-2.118 -2.898,-1.316 -1.68,-0.368 0,0 m 2.17,-19.055 c 0.752,0.313 1.482,0.275 1.631,-0.085 0.149,-0.358 -0.34,-0.902 -1.092,-1.214 -0.752,-0.313 -1.481,-0.275 -1.631,0.084 -0.149,0.359 0.34,0.903 1.092,1.215 m 8.315,8.229 c 0.371,0.595 1.681,0.446 2.926,-0.331 1.244,-0.778 1.952,-1.889 1.581,-2.484 -0.371,-0.593 -1.68,-0.445 -2.925,0.332 -1.244,0.778 -1.952,1.889 -1.582,2.483 M -0.85,2.645 c 0.284,-2.28 -5.608,-0.75 -9.843,-1.527 -0.182,-2.103 -0.036,-4.467 0.52,-7.041 3.116,0.529 6.696,0.794 7.388,-0.603 0.804,-1.624 -2.799,-2.277 -6.194,-3.523 0.717,-1.99 1.665,-4.07 2.877,-6.225 2.246,0.967 4.422,1.552 5.251,0.681 1.01,-1.06 -0.92,-2.371 -3.213,-3.995 0.874,-1.308 1.844,-2.639 2.918,-3.986 1.843,0.688 3.495,0.986 4.192,0.254 0.8,-0.841 -0.245,-1.837 -1.855,-3.023 1.046,-1.178 2.157,-2.367 3.365,-3.565 1.475,0.847 2.853,1.71 4.168,2.58 -1.25,1.559 -2.004,2.791 -1.015,3.397 0.862,0.529 2.382,-0.183 3.985,-1.323 1.385,1.026 2.665,2.062 3.847,3.102 -1.799,2.159 -3.327,3.922 -2.079,4.687 1.025,0.628 2.978,-0.497 4.899,-2.01 1.727,1.771 3.178,3.537 4.382,5.276 -2.96,2.078 -6.273,3.635 -5.079,4.998 1.027,1.172 4.42,-0.005 7.294,-1.319 1.199,2.345 1.949,4.591 2.314,6.67 -3.892,1.84 -9.979,1.878 -9.119,4.008 0.709,1.757 5.855,1.39 9.251,0.943 -0.544,3.79 -2.645,6.474 -5.639,7.27 -9.194,2.443 -12.555,-2.7 -12.555,-2.7 0,0 -1.925,5.836 -11.437,5.839 -3.098,0.002 -5.82,-2.053 -7.32,-5.575 3.397,-0.441 8.464,-1.411 8.697,-3.29"
           style="fill:#55a361;fill-opacity:1;fill-rule:nonzero;stroke:none"
           id="path1247" /></g><g
         id="g1249"><g
           id="g1251" /><g
           id="g1263"><g
             clip-path="url(#clipPath1255)"
             opacity="0.199997"
             id="g1261"><g
               transform="translate(382.6631,126.5693)"
               id="g1259"><path
                 d="M 0,0 C -0.752,-0.312 -1.481,-0.274 -1.631,0.085 -1.78,0.443 -1.291,0.987 -0.539,1.3 0.213,1.612 0.943,1.574 1.092,1.215 1.241,0.856 0.752,0.312 0,0 m -2.073,17.451 c -1.68,-0.368 -3.183,-0.015 -3.359,0.785 -0.175,0.802 1.043,1.75 2.723,2.118 1.679,0.368 3.183,0.016 3.357,-0.786 0.176,-0.801 -1.043,-1.749 -2.721,-2.117 m -2.863,14.413 c -3.098,0.002 -5.82,-2.052 -7.32,-5.575 3.397,-0.44 8.464,-1.41 8.697,-3.29 0.284,-2.279 -5.608,-0.75 -9.843,-1.526 -0.182,-2.104 -0.036,-4.467 0.52,-7.041 3.116,0.529 6.696,0.794 7.388,-0.604 0.804,-1.624 -2.799,-2.276 -6.194,-3.522 0.717,-1.991 1.665,-4.071 2.877,-6.226 2.246,0.968 4.422,1.553 5.251,0.682 1.01,-1.061 -0.919,-2.371 -3.213,-3.995 0.874,-1.309 1.844,-2.639 2.918,-3.987 1.843,0.689 3.495,0.987 4.192,0.254 0.8,-0.841 -0.245,-1.837 -1.855,-3.022 1.046,-1.179 2.157,-2.367 3.365,-3.566 l 4.654,35.579 c 0,0 -1.925,5.836 -11.437,5.839"
                 style="fill:#005337;fill-opacity:1;fill-rule:nonzero;stroke:none"
                 id="path1257" /></g></g></g></g><g
         id="g1265"
         transform="translate(394.1133,106.4424)"><path
           d="m 0,0 c -2.641,-0.888 -5.071,-2.711 -7.152,-4.501 -5.736,-4.934 -9.72,-11.653 -12.418,-18.651 -2.438,-6.323 -3.826,-12.987 -4.636,-19.7 -0.115,-0.948 1.373,-0.939 1.486,0 1.772,14.672 7.086,32.428 20.848,40.316 0.798,0.457 1.618,0.884 2.267,1.102 C 1.298,-1.131 0.91,0.307 0,0"
           style="fill:#1d7256;fill-opacity:1;fill-rule:nonzero;stroke:none"
           id="path1267" /></g><g
         id="g1269"
         transform="translate(390.7363,104.4414)"><path
           d="M 0,0 C 0.815,0.762 1.771,1.063 2.134,0.675 2.497,0.286 2.132,-0.646 1.316,-1.408 0.502,-2.169 -0.453,-2.472 -0.816,-2.082 -1.18,-1.693 -0.814,-0.761 0,0 m 7.523,-9.907 c 0.317,0.423 0.737,0.643 0.939,0.493 0.201,-0.151 0.109,-0.616 -0.207,-1.04 -0.316,-0.423 -0.735,-0.644 -0.938,-0.493 -0.202,0.151 -0.109,0.616 0.206,1.04 m 1.913,7.344 c 0.009,0.454 0.79,0.805 1.741,0.785 0.951,-0.022 1.715,-0.408 1.705,-0.862 -0.011,-0.454 -0.79,-0.805 -1.741,-0.784 -0.953,0.022 -1.715,0.406 -1.705,0.861 M -1.35,1.194 c 0.913,-1.177 -2.879,-2.276 -4.984,-4.113 0.596,-1.233 1.46,-2.503 2.623,-3.754 1.563,1.327 3.472,2.661 4.32,2.111 0.987,-0.639 -0.806,-2.197 -2.287,-4.017 1.059,-0.872 2.277,-1.718 3.667,-2.519 0.932,1.285 1.952,2.331 2.703,2.12 0.914,-0.256 0.273,-1.626 -0.469,-3.293 0.922,-0.44 1.903,-0.86 2.949,-1.256 0.8,0.995 1.622,1.708 2.254,1.531 0.724,-0.204 0.471,-1.107 -0.033,-2.3 0.973,-0.311 1.986,-0.606 3.057,-0.875 0.542,0.962 1.026,1.9 1.47,2.82 -1.214,0.456 -2.042,0.893 -1.691,1.559 0.305,0.581 1.389,0.687 2.661,0.582 0.432,1.031 0.802,2.033 1.117,3.005 -1.719,0.608 -3.154,1.085 -2.712,1.925 0.364,0.69 1.826,0.71 3.398,0.503 0.376,1.559 0.601,3.025 0.697,4.393 -2.34,0.179 -4.703,-0.051 -4.49,1.105 0.185,0.995 2.467,1.462 4.505,1.681 C 17.298,4.107 16.972,5.608 16.486,6.89 13.706,6.626 10.299,4.631 10.072,6.104 9.887,7.318 12.878,8.818 14.92,9.693 13.361,11.628 11.3,12.429 9.365,11.881 3.429,10.197 3.259,6.215 3.259,6.215 c 0,0 -3.007,2.617 -8.314,-0.532 C -6.783,4.656 -7.62,2.609 -7.29,0.147 c 2.04,0.88 5.187,2.018 5.94,1.047"
           style="fill:#1d7256;fill-opacity:1;fill-rule:nonzero;stroke:none"
           id="path1271" /></g><g
         id="g1273"><g
           id="g1275" /><g
           id="g1287"><g
             clip-path="url(#clipPath1279)"
             opacity="0.199997"
             id="g1285"><g
               transform="translate(398.9912,93.9873)"
               id="g1283"><path
                 d="m 0,0 c -0.315,-0.423 -0.735,-0.644 -0.937,-0.493 -0.203,0.151 -0.11,0.616 0.206,1.04 C -0.415,0.97 0.005,1.19 0.207,1.04 0.408,0.889 0.316,0.424 0,0 m -6.938,9.046 c -0.815,-0.761 -1.77,-1.064 -2.133,-0.674 -0.364,0.389 0.002,1.321 0.816,2.082 0.816,0.762 1.771,1.064 2.134,0.675 0.363,-0.389 -0.002,-1.321 -0.817,-2.083 m -6.372,7.091 c -1.728,-1.027 -2.565,-3.074 -2.235,-5.535 2.04,0.879 5.188,2.017 5.941,1.046 0.913,-1.177 -2.879,-2.276 -4.985,-4.113 0.596,-1.233 1.46,-2.503 2.623,-3.754 1.563,1.327 3.472,2.661 4.32,2.112 0.987,-0.64 -0.806,-2.198 -2.287,-4.018 1.059,-0.872 2.277,-1.718 3.667,-2.519 0.932,1.285 1.953,2.331 2.703,2.121 0.915,-0.257 0.273,-1.627 -0.469,-3.293 0.922,-0.441 1.903,-0.861 2.949,-1.257 0.8,0.995 1.622,1.708 2.254,1.531 0.725,-0.204 0.472,-1.106 -0.033,-2.3 0.973,-0.311 1.986,-0.606 3.057,-0.875 l -9.191,21.386 c 0,0 -3.007,2.617 -8.314,-0.532"
                 style="fill:#005337;fill-opacity:1;fill-rule:nonzero;stroke:none"
                 id="path1281" /></g></g></g></g><g
         id="g1289"
         transform="translate(320.7568,181.8584)"><path
           d="m 0,0 c 1.155,-0.736 2.213,-1.715 3.367,-2.822 3.119,-2.991 5.821,-6.409 8.232,-9.987 9.987,-14.816 15.422,-32.473 18.775,-49.868 3.222,-16.713 4.453,-33.766 4.586,-50.768 0.007,-0.957 1.494,-0.959 1.487,0 -0.208,26.619 -2.9,54.027 -12.356,79.109 C 19.766,-22.865 13.916,-11.303 5.181,-2.519 3.828,-1.158 2.378,0.247 0.75,1.284 -0.06,1.8 -0.806,0.514 0,0"
           style="fill:#55a361;fill-opacity:1;fill-rule:nonzero;stroke:none"
           id="path1291" /></g><g
         id="g1293"
         transform="translate(313.8838,183.5078)"><path
           d="m 0,0 c 1.939,-0.528 3.307,-1.707 3.055,-2.633 -0.252,-0.926 -2.029,-1.248 -3.968,-0.72 -1.94,0.53 -3.307,1.708 -3.055,2.634 C -3.716,0.207 -1.939,0.528 0,0 m -8.071,-20.92 c 0.948,-0.084 1.684,-0.518 1.644,-0.972 -0.04,-0.452 -0.841,-0.752 -1.789,-0.668 -0.948,0.084 -1.684,0.519 -1.644,0.972 0.04,0.452 0.84,0.752 1.789,0.668 m 13.074,4.023 c 0.707,0.415 1.983,-0.449 2.851,-1.928 0.87,-1.48 1.001,-3.015 0.295,-3.43 -0.707,-0.414 -1.983,0.448 -2.852,1.928 -0.868,1.479 -1,3.015 -0.294,3.43 M 0.553,3.202 c -0.942,-2.516 -6.218,2.259 -11.028,3.749 -1.328,-2.082 -2.456,-4.609 -3.274,-7.578 3.516,-1.139 7.37,-2.805 7.329,-4.627 -0.047,-2.117 -4.134,-0.843 -8.327,-0.296 -0.334,-2.45 -0.479,-5.119 -0.39,-8.009 2.851,-0.212 5.424,-0.787 5.811,-2.138 0.472,-1.646 -2.237,-1.958 -5.494,-2.399 0.197,-1.829 0.482,-3.733 0.864,-5.712 2.283,-0.285 4.156,-0.871 4.482,-2.006 0.373,-1.305 -1.249,-1.772 -3.558,-2.128 0.445,-1.788 0.951,-3.621 1.554,-5.518 1.989,0.079 3.884,0.227 5.717,0.417 -0.451,2.293 -0.564,3.978 0.789,4.07 1.18,0.08 2.368,-1.481 3.413,-3.531 1.991,0.315 3.878,0.694 5.665,1.132 -0.694,3.212 -1.323,5.865 0.385,5.982 1.403,0.096 2.819,-2.128 3.988,-4.735 2.749,0.899 5.209,1.944 7.399,3.093 -1.941,3.757 -4.531,7.165 -2.557,7.93 1.7,0.659 4.578,-2.399 6.845,-5.316 2.514,1.779 4.507,3.701 6.012,5.658 -3.038,4.015 -9.324,7.351 -7.28,9.093 1.686,1.436 6.82,-1.731 10.097,-4.035 1.489,4.222 0.766,8.142 -1.906,10.59 -8.203,7.51 -14.472,4.001 -14.472,4.001 0,0 1.166,7.09 -8.689,12.245 -3.21,1.679 -7.143,1.025 -10.606,-1.813 3.282,-2.297 8.007,-6.046 7.231,-8.119"
           style="fill:#55a361;fill-opacity:1;fill-rule:nonzero;stroke:none"
           id="path1295" /></g><g
         id="g1297"><g
           id="g1299" /><g
           id="g1311"><g
             clip-path="url(#clipPath1303)"
             opacity="0.199997"
             id="g1309"><g
               transform="translate(305.668,160.9482)"
               id="g1307"><path
                 d="M 0,0 C -0.948,0.084 -1.685,0.519 -1.645,0.972 -1.604,1.424 -0.804,1.724 0.145,1.64 1.093,1.556 1.829,1.121 1.789,0.668 1.749,0.216 0.948,-0.084 0,0 m 7.303,19.207 c -1.94,0.529 -3.307,1.708 -3.055,2.634 0.252,0.926 2.028,1.247 3.968,0.719 1.939,-0.529 3.306,-1.707 3.055,-2.633 -0.252,-0.926 -2.029,-1.248 -3.968,-0.72 m 4.841,16.486 C 8.934,37.373 5.001,36.719 1.538,33.881 4.819,31.584 9.545,27.835 8.769,25.762 7.827,23.245 2.551,28.021 -2.259,29.511 -3.587,27.429 -4.715,24.901 -5.533,21.933 -2.018,20.794 1.837,19.128 1.796,17.306 1.749,15.188 -2.338,16.463 -6.531,17.01 -6.865,14.56 -7.01,11.891 -6.921,9.001 -4.07,8.788 -1.497,8.214 -1.11,6.862 -0.639,5.217 -3.348,4.904 -6.604,4.464 -6.407,2.635 -6.122,0.73 -5.74,-1.248 c 2.283,-0.285 4.156,-0.871 4.482,-2.007 0.373,-1.305 -1.249,-1.771 -3.558,-2.128 0.445,-1.788 0.951,-3.621 1.554,-5.517 l 24.095,34.348 c 0,0 1.166,7.09 -8.689,12.245"
                 style="fill:#005337;fill-opacity:1;fill-rule:nonzero;stroke:none"
                 id="path1305" /></g></g></g></g><g
         id="g1313"
         transform="translate(320.1963,124.8145)"><path
           d="m 0,0 c 3.713,-1.626 7.131,-4.251 10.146,-6.907 7.623,-6.712 13.324,-15.414 16.779,-24.944 2.855,-7.876 4.201,-16.195 4.47,-24.55 0.031,-0.955 1.518,-0.959 1.487,0 -0.437,13.576 -3.783,27.154 -11.322,38.582 C 17.146,-11.13 11.406,-5.212 4.636,-0.89 3.393,-0.096 2.105,0.691 0.751,1.284 -0.118,1.664 -0.876,0.384 0,0"
           style="fill:#1d7256;fill-opacity:1;fill-rule:nonzero;stroke:none"
           id="path1315" /></g><g
         id="g1317"
         transform="translate(318.999,124.2236)"><path
           d="M 0,0 C 1.59,0.896 3.225,1.008 3.653,0.249 4.081,-0.51 3.14,-1.852 1.55,-2.749 -0.04,-3.646 -1.676,-3.757 -2.104,-2.998 -2.531,-2.239 -1.59,-0.897 0,0 m 8.143,-18.664 c 0.666,0.552 1.419,0.74 1.682,0.423 0.263,-0.319 -0.063,-1.023 -0.729,-1.574 -0.666,-0.551 -1.419,-0.741 -1.683,-0.422 -0.263,0.317 0.064,1.022 0.73,1.573 m 5.876,10.945 c 0.191,0.718 1.566,0.976 3.072,0.575 1.505,-0.4 2.57,-1.308 2.379,-2.027 -0.192,-0.719 -1.567,-0.976 -3.073,-0.575 -1.505,0.4 -2.57,1.308 -2.378,2.027 M -1.687,2.42 c 0.999,-2.227 -5.459,-2.511 -9.515,-4.619 0.471,-2.192 1.356,-4.544 2.723,-6.985 2.998,1.509 6.549,2.895 7.687,1.692 1.321,-1.398 -2.132,-3.184 -5.188,-5.507 1.347,-1.796 2.958,-3.612 4.861,-5.422 1.976,1.683 4.004,2.955 5.117,2.329 1.356,-0.762 -0.195,-2.693 -2.018,-5.056 1.296,-1.056 2.696,-2.103 4.207,-3.137 1.655,1.273 3.239,2.091 4.174,1.564 1.075,-0.603 0.325,-1.94 -0.939,-3.645 1.43,-0.87 2.926,-1.731 4.526,-2.571 1.234,1.321 2.364,2.626 3.426,3.919 -1.755,1.193 -2.903,2.208 -2.089,3.132 0.711,0.805 2.475,0.556 4.458,-0.101 1.085,1.473 2.062,2.924 2.937,4.347 -2.499,1.631 -4.6,2.944 -3.571,4.11 0.844,0.957 3.178,0.425 5.599,-0.512 1.2,2.335 2.122,4.58 2.803,6.72 -3.652,1.186 -7.5,1.734 -6.713,3.49 0.677,1.51 4.487,1.373 7.814,0.936 0.487,2.753 0.547,5.267 0.27,7.492 -4.526,0.653 -10.715,-1.205 -10.506,1.224 0.173,2.004 5.51,3.237 9.097,3.84 -1.735,3.678 -4.704,5.748 -7.993,5.622 C 9.389,14.896 7.58,8.628 7.58,8.628 c 0,0 -3.772,5.322 -13.429,2.361 -3.145,-0.965 -5.267,-3.898 -5.692,-7.941 3.586,0.611 9.031,1.207 9.854,-0.628"
           style="fill:#1d7256;fill-opacity:1;fill-rule:nonzero;stroke:none"
           id="path1319" /></g><g
         id="g1321"><g
           id="g1323" /><g
           id="g1335"><g
             clip-path="url(#clipPath1327)"
             opacity="0.5"
             id="g1333"><g
               transform="translate(328.0947,104.4082)"
               id="g1331"><path
                 d="m 0,0 c -0.666,-0.551 -1.419,-0.74 -1.683,-0.422 -0.262,0.318 0.064,1.023 0.73,1.573 0.666,0.552 1.419,0.741 1.682,0.423 C 0.992,1.256 0.666,0.552 0,0 m -7.546,17.066 c -1.59,-0.896 -3.225,-1.007 -3.653,-0.249 -0.428,0.759 0.513,2.101 2.103,2.998 1.59,0.897 3.225,1.008 3.654,0.249 0.427,-0.758 -0.514,-2.1 -2.104,-2.998 m -7.398,13.739 c -3.146,-0.965 -5.268,-3.899 -5.693,-7.942 3.586,0.612 9.032,1.207 9.854,-0.628 0.999,-2.226 -5.458,-2.51 -9.515,-4.619 0.471,-2.191 1.357,-4.544 2.724,-6.984 2.997,1.509 6.549,2.894 7.686,1.691 1.322,-1.397 -2.132,-3.183 -5.188,-5.507 1.347,-1.795 2.958,-3.612 4.861,-5.421 1.977,1.682 4.004,2.955 5.117,2.329 1.356,-0.762 -0.195,-2.694 -2.017,-5.057 1.296,-1.056 2.695,-2.103 4.206,-3.137 1.655,1.274 3.239,2.091 4.175,1.565 1.074,-0.604 0.324,-1.941 -0.94,-3.646 1.43,-0.87 2.926,-1.73 4.527,-2.57 l -6.369,37.564 c 0,0 -3.772,5.323 -13.428,2.362"
                 style="fill:#005337;fill-opacity:1;fill-rule:nonzero;stroke:none"
                 id="path1329" /></g></g></g></g><g
         id="g1337"
         transform="translate(328.6885,79.0518)"><path
           d="m 0,0 v -16.69 c 0,-12.73 10.415,-23.146 23.146,-23.146 h 19.768 c 12.731,0 23.146,10.416 23.146,23.146 V 0 Z"
           style="fill:#a4dad4;fill-opacity:1;fill-rule:nonzero;stroke:none"
           id="path1339" /></g></g></g><g
     id="g2029"
     transform="matrix(0.35277776,0,0,-0.35277778,37.260396,72.111518)"
     clip-path="url(#clipPath3675)"
     inkscape:export-filename="g2029.svg"
     inkscape:export-xdpi="96"
     inkscape:export-ydpi="96"><path
       d="m 0,0 c 0,-2.482 -23.644,-4.495 -52.81,-4.495 -29.167,0 -52.81,2.013 -52.81,4.495 0,2.482 23.643,4.495 52.81,4.495 C -23.644,4.495 0,2.482 0,0"
       style="fill:#f5f2ed;fill-opacity:1;fill-rule:nonzero;stroke:none"
       id="path2031" /></g><g
     id="g2033"
     transform="matrix(0.35277776,0,0,-0.35277778,3.7520063,37.285398)"
     clip-path="none"><path
       d="m 0,0 v -24.098 c 0,-10.599 8.673,-19.273 19.273,-19.273 h 21.252 c 10.601,0 19.274,8.674 19.274,19.273 V 0 Z"
       style="fill:#f9c82f;fill-opacity:1;fill-rule:nonzero;stroke:none"
       id="path2035" /></g><g
     id="g2037"
     transform="matrix(0.35277776,0,0,-0.35277778,-160.87911,85.945978)"><g
       id="g2039"
       clip-path="url(#clipPath2043)"><g
         id="g2045"
         transform="translate(524.1953,122.834)"><path
           d="M 0,0 C -2.029,0 -3.084,0.651 -4.014,1.227 -4.835,1.733 -5.482,2.134 -6.906,2.134 -8.329,2.134 -8.977,1.733 -9.797,1.227 -10.727,0.651 -11.78,0 -13.809,0 c -2.027,0 -3.08,0.651 -4.009,1.227 -0.82,0.506 -1.466,0.907 -2.886,0.907 -1.422,0 -2.069,-0.401 -2.89,-0.907 C -24.523,0.651 -25.576,0 -27.604,0 c -2.029,0 -3.082,0.651 -4.01,1.227 -0.821,0.506 -1.468,0.907 -2.889,0.907 -1.421,0 -2.068,-0.401 -2.887,-0.907 C -38.319,0.651 -39.372,0 -41.4,0 c -2.029,0 -3.081,0.651 -4.011,1.227 -0.819,0.506 -1.466,0.907 -2.888,0.907 -1.42,0 -2.066,-0.401 -2.886,-0.907 C -52.113,0.651 -53.167,0 -55.193,0 c -2.027,0 -3.079,0.651 -4.008,1.227 -0.819,0.506 -1.465,0.907 -2.884,0.907 v 2.134 c 2.026,0 3.079,-0.653 4.008,-1.227 0.818,-0.507 1.465,-0.907 2.884,-0.907 1.42,0 2.066,0.4 2.885,0.907 0.929,0.575 1.983,1.227 4.009,1.227 2.028,0 3.081,-0.652 4.01,-1.227 0.82,-0.507 1.468,-0.907 2.889,-0.907 1.421,0 2.068,0.4 2.887,0.907 0.929,0.575 1.983,1.227 4.01,1.227 2.028,0 3.082,-0.652 4.011,-1.227 0.819,-0.507 1.467,-0.907 2.888,-0.907 1.421,0 2.068,0.4 2.888,0.907 0.93,0.575 1.983,1.227 4.012,1.227 2.026,0 3.079,-0.652 4.009,-1.227 0.819,-0.507 1.466,-0.907 2.886,-0.907 1.423,0 2.071,0.4 2.89,0.907 0.931,0.575 1.984,1.227 4.013,1.227 2.029,0 3.084,-0.652 4.014,-1.227 C -2.071,2.534 -1.423,2.134 0,2.134 c 1.424,0 2.072,0.4 2.893,0.907 0.93,0.575 1.985,1.227 4.014,1.227 V 2.134 C 5.483,2.134 4.835,1.733 4.015,1.227 3.084,0.651 2.03,0 0,0"
           style="fill:#ffffff;fill-opacity:1;fill-rule:nonzero;stroke:none"
           id="path2047" /></g><g
         id="g2049"
         transform="translate(524.1953,112.165)"><path
           d="M 0,0 C -2.029,0 -3.084,0.651 -4.014,1.227 -4.835,1.733 -5.482,2.134 -6.906,2.134 -8.329,2.134 -8.977,1.733 -9.797,1.227 -10.727,0.651 -11.78,0 -13.809,0 c -2.027,0 -3.08,0.651 -4.009,1.227 -0.82,0.506 -1.466,0.907 -2.886,0.907 -1.422,0 -2.069,-0.401 -2.89,-0.907 C -24.523,0.651 -25.576,0 -27.604,0 c -2.029,0 -3.082,0.651 -4.01,1.227 -0.821,0.506 -1.468,0.907 -2.889,0.907 -1.421,0 -2.068,-0.401 -2.887,-0.907 C -38.319,0.651 -39.372,0 -41.4,0 c -2.029,0 -3.081,0.651 -4.011,1.227 -0.819,0.506 -1.466,0.907 -2.888,0.907 -1.42,0 -2.066,-0.401 -2.886,-0.907 C -52.113,0.651 -53.167,0 -55.193,0 c -2.027,0 -3.079,0.651 -4.008,1.227 -0.819,0.506 -1.465,0.907 -2.884,0.907 v 2.134 c 2.026,0 3.079,-0.653 4.008,-1.227 0.818,-0.507 1.465,-0.907 2.884,-0.907 1.42,0 2.066,0.4 2.885,0.907 0.929,0.575 1.983,1.227 4.009,1.227 2.028,0 3.081,-0.652 4.01,-1.227 0.82,-0.507 1.468,-0.907 2.889,-0.907 1.421,0 2.068,0.4 2.887,0.907 0.929,0.575 1.983,1.227 4.01,1.227 2.028,0 3.082,-0.652 4.011,-1.227 0.819,-0.507 1.467,-0.907 2.888,-0.907 1.421,0 2.068,0.4 2.888,0.907 0.93,0.575 1.983,1.227 4.012,1.227 2.026,0 3.079,-0.652 4.009,-1.227 0.819,-0.507 1.466,-0.907 2.886,-0.907 1.423,0 2.071,0.4 2.89,0.907 0.931,0.575 1.984,1.227 4.013,1.227 2.029,0 3.084,-0.652 4.014,-1.227 C -2.071,2.534 -1.423,2.134 0,2.134 c 1.424,0 2.072,0.4 2.893,0.907 0.93,0.575 1.985,1.227 4.014,1.227 V 2.134 C 5.483,2.134 4.835,1.733 4.015,1.227 3.084,0.651 2.03,0 0,0"
           style="fill:#ffffff;fill-opacity:1;fill-rule:nonzero;stroke:none"
           id="path2051" /></g></g></g><g
     id="g2053"
     transform="matrix(0.35277776,0,0,-0.35277778,-160.87911,85.945978)"><g
       id="g2055"
       clip-path="url(#clipPath2059)"><g
         id="g2061"><g
           id="g2063" /><g
           id="g2075"><g
             clip-path="url(#clipPath2067)"
             opacity="0.100006"
             id="g2073"><g
               transform="translate(512.8018,137.9355)"
               id="g2071"><path
                 d="m 0,0 v -24.098 c 0,-10.599 -8.674,-19.273 -19.274,-19.273 h 13.669 c 10.6,0 19.273,8.674 19.273,19.273 V 0 Z"
                 style="fill:#4f2883;fill-opacity:1;fill-rule:nonzero;stroke:none"
                 id="path2069" /></g></g></g></g><path
         d="m 531.103,134.318 h -69.064 v 7.234 h 69.064 z"
         style="fill:#e6a100;fill-opacity:1;fill-rule:nonzero;stroke:none"
         id="path2077" /><g
         id="g2079"
         transform="translate(511.96,98.9844)"><path
           d="m 0,0 c -0.455,-0.88 -0.911,-1.759 -1.367,-2.638 -3.506,8.645 -7.011,17.289 -10.517,25.934 -0.416,1.025 -0.831,2.05 -1.247,3.075 H 7.272 13.667 C 9.111,17.58 4.556,8.79 0,0 m -27.263,-0.003 c -0.427,-0.922 -0.854,-1.844 -1.282,-2.766 l -14.982,26.157 c -0.57,0.994 -1.14,1.989 -1.709,2.983 h 19.617 10.589 C -19.107,17.58 -23.186,8.788 -27.263,-0.003 m -15.215,36.731 c 2.57,7.892 5.138,15.784 7.707,23.675 3.093,9.501 6.185,19.002 9.278,28.503 2.687,8.257 5.375,16.513 8.062,24.77 0.887,2.723 1.774,5.446 2.66,8.17 0.031,0.093 0.061,0.187 0.091,0.281 V 116.291 92.61 64.078 39.272 31.127 c 0,-1.133 -0.101,-2.358 -0.023,-3.506 h -24.056 -6.682 c 0.988,3.035 1.976,6.071 2.963,9.107 m 30.691,79.309 c 2.299,-7.898 4.598,-15.797 6.895,-23.694 2.796,-9.607 5.591,-19.212 8.387,-28.818 2.406,-8.267 4.812,-16.535 7.218,-24.801 0.794,-2.728 1.587,-5.454 2.381,-8.181 0.202,-0.694 0.657,-2.041 0.955,-2.922 H -5.867 -13.43 v 9.232 23.68 28.533 24.806 7.809 c 0.548,-1.881 1.096,-3.763 1.643,-5.644 m 27.27,-88.798 c -0.957,3.287 -1.914,6.188 -2.87,9.475 -2.299,7.898 -4.597,15.796 -6.895,23.694 -2.796,9.606 -5.592,19.212 -8.387,28.818 -2.406,8.267 -4.812,16.534 -7.218,24.801 -0.794,2.727 -1.587,5.454 -2.381,8.181 -0.372,1.276 -0.656,2.661 -1.132,3.894 -0.022,0.055 -0.035,0.117 -0.052,0.174 -0.004,0.017 -0.014,0.028 -0.019,0.043 -0.017,0.058 -0.041,0.108 -0.069,0.155 -0.011,0.018 -0.023,0.036 -0.035,0.052 -0.029,0.038 -0.057,0.075 -0.092,0.103 -0.168,0.151 -0.388,0.186 -0.585,0.107 -0.178,-0.058 -0.323,-0.201 -0.387,-0.423 -0.006,-0.013 -0.013,-0.023 -0.018,-0.037 -1.07,-3.287 -2.14,-6.573 -3.209,-9.86 -2.57,-7.892 -5.138,-15.783 -7.707,-23.675 -3.092,-9.501 -6.185,-19.002 -9.278,-28.503 l -8.062,-24.77 c -0.887,-2.723 -1.774,-5.447 -2.659,-8.169 -0.405,-1.24 -1.032,-2.582 -1.264,-3.882 -0.011,-0.058 -0.038,-0.116 -0.056,-0.172 -0.002,-0.006 -10e-4,-0.01 -0.003,-0.016 -0.028,-0.083 -0.038,-0.172 -0.034,-0.261 0.001,-0.024 0.007,-0.043 0.01,-0.065 0.016,-0.124 0.055,-0.244 0.134,-0.337 0.002,-0.004 0.002,-0.009 0.004,-0.013 5.193,-9.067 10.385,-18.132 15.579,-27.198 0.724,-1.265 1.449,-2.53 2.174,-3.795 0.217,-0.379 0.878,-0.435 1.08,0 4.222,9.105 8.445,18.21 12.668,27.314 0.396,0.855 0.792,1.708 1.188,2.562 3.496,-8.621 6.991,-17.241 10.488,-25.861 0.522,-1.289 1.044,-2.577 1.567,-3.866 0.184,-0.454 0.87,-0.674 1.142,-0.149 4.696,9.059 9.39,18.119 14.085,27.177 0.635,1.226 1.27,2.451 1.906,3.677 0.288,0.103 0.509,0.403 0.387,0.825"
           style="fill:#7b3c14;fill-opacity:1;fill-rule:nonzero;stroke:none"
           id="path2081" /></g><g
         id="g2083"
         transform="translate(467.7285,126.0684)"><path
           d="m 0,0 c 0,-1.018 -0.825,-1.844 -1.844,-1.844 -1.017,0 -1.843,0.826 -1.843,1.844 0,1.018 0.826,1.843 1.843,1.843 C -0.825,1.843 0,1.018 0,0"
           style="fill:#7b3c14;fill-opacity:1;fill-rule:nonzero;stroke:none"
           id="path2085" /></g><g
         id="g2087"
         transform="translate(499.7139,126.0684)"><path
           d="m 0,0 c 0,-1.018 -0.826,-1.844 -1.844,-1.844 -1.017,0 -1.843,0.826 -1.843,1.844 0,1.018 0.826,1.843 1.843,1.843 C -0.826,1.843 0,1.018 0,0"
           style="fill:#7b3c14;fill-opacity:1;fill-rule:nonzero;stroke:none"
           id="path2089" /></g><g
         id="g2091"
         transform="translate(528.5127,126.0684)"><path
           d="m 0,0 c 0,-1.018 -0.825,-1.844 -1.843,-1.844 -1.018,0 -1.844,0.826 -1.844,1.844 0,1.018 0.826,1.843 1.844,1.843 C -0.825,1.843 0,1.018 0,0"
           style="fill:#7b3c14;fill-opacity:1;fill-rule:nonzero;stroke:none"
           id="path2093" /></g><g
         id="g2095"
         transform="translate(485.3145,94.8594)"><path
           d="m 0,0 c 0,-1.018 -0.825,-1.843 -1.843,-1.843 -1.018,0 -1.844,0.825 -1.844,1.843 0,1.019 0.826,1.844 1.844,1.844 C -0.825,1.844 0,1.019 0,0"
           style="fill:#7b3c14;fill-opacity:1;fill-rule:nonzero;stroke:none"
           id="path2097" /></g><g
         id="g2099"
         transform="translate(512.2695,94.8594)"><path
           d="m 0,0 c 0,-1.018 -0.825,-1.843 -1.843,-1.843 -1.018,0 -1.844,0.825 -1.844,1.843 0,1.019 0.826,1.844 1.844,1.844 C -0.825,1.844 0,1.019 0,0"
           style="fill:#7b3c14;fill-opacity:1;fill-rule:nonzero;stroke:none"
           id="path2101" /></g><g
         id="g2103"
         transform="translate(501.1387,225.877)"><path
           d="m 0,0 c 0,-1.707 -1.384,-3.091 -3.091,-3.091 -1.707,0 -3.091,1.384 -3.091,3.091 0,1.707 1.384,3.091 3.091,3.091 C -1.384,3.091 0,1.707 0,0"
           style="fill:#7b3c14;fill-opacity:1;fill-rule:nonzero;stroke:none"
           id="path2105" /></g><g
         id="g2107"
         transform="translate(498.6729,225.877)"><path
           d="m 0,0 v 15.021 2.125 c 0,0.804 -1.25,0.805 -1.25,0 V 2.124 0 C -1.25,-0.805 0,-0.806 0,0"
           style="fill:#7b3c14;fill-opacity:1;fill-rule:nonzero;stroke:none"
           id="path2109" /></g><g
         id="g2111"
         transform="translate(525.0527,68.8477)"><path
           d="M 0,0 C 6.482,4.918 15.404,4.073 17.11,1.823 18.942,-0.593 17.227,-9.245 10.743,-14.163 4.26,-19.081 -3.401,-19.897 -6.367,-15.986 -9.334,-12.075 -6.483,-4.918 0,0"
           style="fill:#6ac379;fill-opacity:1;fill-rule:nonzero;stroke:none"
           id="path2113" /></g><g
         id="g2115"
         transform="translate(539.4932,46.335)"><path
           d="M 0,0 C -0.339,5.079 3.172,9.449 4.935,9.566 6.827,9.692 10.757,5.818 11.096,0.739 11.434,-4.34 9.225,-8.623 6.161,-8.827 3.097,-9.031 0.339,-5.079 0,0"
           style="fill:#6ac379;fill-opacity:1;fill-rule:nonzero;stroke:none"
           id="path2117" /></g><g
         id="g2119"
         transform="translate(552.791,65.5557)"><path
           d="M 0,0 C -2.055,5.812 0.611,12.055 2.628,12.768 4.794,13.533 10.642,10.3 12.696,4.488 14.751,-1.324 13.574,-7.04 10.068,-8.279 6.562,-9.519 2.055,-5.812 0,0"
           style="fill:#6ac379;fill-opacity:1;fill-rule:nonzero;stroke:none"
           id="path2121" /></g><g
         id="g2123"
         transform="translate(565.0625,83.7051)"><path
           d="m 0,0 c -4.181,4.529 -4.193,11.317 -2.622,12.769 1.688,1.557 8.337,0.893 12.518,-3.636 4.181,-4.53 5.355,-10.247 2.622,-12.77 C 9.785,-6.158 4.181,-4.53 0,0"
           style="fill:#6ac379;fill-opacity:1;fill-rule:nonzero;stroke:none"
           id="path2125" /></g><g
         id="g2127"
         transform="translate(542.4258,92.2275)"><path
           d="M 0,0 C 3.325,3.069 8.31,3.078 9.374,1.925 10.519,0.686 10.031,-4.196 6.705,-7.266 3.379,-10.335 -0.818,-11.197 -2.67,-9.19 -4.521,-7.185 -3.326,-3.07 0,0"
           style="fill:#6ac379;fill-opacity:1;fill-rule:nonzero;stroke:none"
           id="path2129" /></g><g
         id="g2131"
         transform="translate(553.7754,178.3086)"><path
           d="m 0,0 c -4.979,-0.582 -9.45,2.657 -9.651,4.386 -0.217,1.855 3.401,5.91 8.38,6.492 C 3.709,11.459 8.03,9.496 8.381,6.492 8.731,3.488 4.979,0.581 0,0"
           style="fill:#6ac379;fill-opacity:1;fill-rule:nonzero;stroke:none"
           id="path2133" /></g><g
         id="g2135"
         transform="translate(538.1543,162.8037)"><path
           d="M 0,0 C 0.433,3.227 3.188,5.521 4.307,5.371 5.51,5.211 7.481,2.283 7.05,-0.943 6.618,-4.171 4.69,-6.575 2.743,-6.314 0.797,-6.055 -0.432,-3.228 0,0"
           style="fill:#6ac379;fill-opacity:1;fill-rule:nonzero;stroke:none"
           id="path2137" /></g><g
         id="g2139"
         transform="translate(563.5205,153.5996)"><path
           d="M 0,0 C -4.431,1.785 -6.691,6.533 -6.072,8.07 -5.406,9.722 -0.53,11.462 3.899,9.677 8.329,7.893 11.048,4.278 9.971,1.606 8.895,-1.066 4.43,-1.785 0,0"
           style="fill:#6ac379;fill-opacity:1;fill-rule:nonzero;stroke:none"
           id="path2141" /></g><g
         id="g2143"
         transform="translate(560.043,139.542)"><path
           d="M 0,0 C -2.208,2.393 -2.215,5.978 -1.385,6.744 -0.493,7.567 3.019,7.217 5.228,4.823 7.436,2.431 8.056,-0.589 6.612,-1.92 5.169,-3.253 2.209,-2.393 0,0"
           style="fill:#6ac379;fill-opacity:1;fill-rule:nonzero;stroke:none"
           id="path2145" /></g><g
         id="g2147"
         transform="translate(537.4551,140.9873)"><path
           d="M 0,0 C 1.73,2.758 5.188,3.703 6.146,3.104 7.173,2.458 7.755,-1.022 6.024,-3.78 4.294,-6.538 1.542,-7.928 -0.121,-6.884 -1.785,-5.84 -1.73,-2.758 0,0"
           style="fill:#6ac379;fill-opacity:1;fill-rule:nonzero;stroke:none"
           id="path2149" /></g><g
         id="g2151"
         transform="translate(561.6309,117.4814)"><path
           d="m 0,0 c -4.43,1.785 -6.691,6.534 -6.071,8.071 0.665,1.651 5.541,3.392 9.97,1.607 C 8.33,7.893 11.048,4.279 9.971,1.606 8.895,-1.065 4.43,-1.785 0,0"
           style="fill:#6ac379;fill-opacity:1;fill-rule:nonzero;stroke:none"
           id="path2153" /></g><g
         id="g2155"
         transform="translate(540.5498,109.8223)"><path
           d="M 0,0 C 1.345,4.643 5.895,7.404 7.505,6.938 9.235,6.437 11.486,1.706 10.143,-2.937 8.798,-7.579 5.437,-10.686 2.638,-9.875 -0.163,-9.063 -1.344,-4.643 0,0"
           style="fill:#6ac379;fill-opacity:1;fill-rule:nonzero;stroke:none"
           id="path2157" /></g><g
         id="g2159"
         transform="translate(525.6562,100.5508)"><path
           d="M 0,0 C 1.715,5.921 7.518,9.443 9.571,8.849 11.778,8.21 14.649,2.176 12.935,-3.745 11.221,-9.667 6.936,-13.628 3.363,-12.594 -0.209,-11.56 -1.715,-5.921 0,0"
           style="fill:#6ac379;fill-opacity:1;fill-rule:nonzero;stroke:none"
           id="path2161" /></g><g
         id="g2163"
         transform="translate(534.3936,118.0986)"><path
           d="M 0,0 C -2.6,3.364 -2.2,8.029 -1.033,8.932 0.221,9.9 4.749,9.044 7.35,5.68 9.949,2.315 10.412,-1.683 8.383,-3.251 6.354,-4.819 2.601,-3.364 0,0"
           style="fill:#6ac379;fill-opacity:1;fill-rule:nonzero;stroke:none"
           id="path2165" /></g><g
         id="g2167"
         transform="translate(537.4727,147.4463)"><path
           d="m 0,0 c -3.178,0.71 -5.225,3.652 -4.979,4.755 0.264,1.184 3.35,2.896 6.528,2.187 C 4.727,6.233 6.956,4.104 6.528,2.188 6.101,0.271 3.178,-0.709 0,0"
           style="fill:#6ac379;fill-opacity:1;fill-rule:nonzero;stroke:none"
           id="path2169" /></g><g
         id="g2171"
         transform="translate(533.4395,164.9268)"><path
           d="M 0,0 C -2.768,-2.555 -6.916,-2.563 -7.803,-1.603 -8.755,-0.57 -8.35,3.493 -5.581,6.048 -2.813,8.603 0.681,9.32 2.223,7.65 3.764,5.979 2.769,2.555 0,0"
           style="fill:#6ac379;fill-opacity:1;fill-rule:nonzero;stroke:none"
           id="path2173" /></g><g
         id="g2175"
         transform="translate(518.3437,150.0312)"><path
           d="m 0,0 c -3.583,0.327 -6.244,3.263 -6.13,4.506 0.121,1.335 3.262,3.648 6.845,3.32 C 4.297,7.5 7.042,5.482 6.845,3.321 6.647,1.159 3.583,-0.327 0,0"
           style="fill:#6ac379;fill-opacity:1;fill-rule:nonzero;stroke:none"
           id="path2177" /></g><g
         id="g2179"
         transform="translate(515.2266,167.0527)"><path
           d="M 0,0 C -3.213,-1.618 -7.024,-0.535 -7.586,0.579 -8.189,1.776 -6.749,5.401 -3.536,7.02 -0.322,8.638 3.073,8.379 4.05,6.44 5.026,4.502 3.213,1.619 0,0"
           style="fill:#6ac379;fill-opacity:1;fill-rule:nonzero;stroke:none"
           id="path2181" /></g><g
         id="g2183"
         transform="translate(482.6211,164.0234)"><path
           d="M 0,0 C 3.414,-1.972 4.713,-6.114 4.028,-7.299 3.294,-8.571 -0.893,-9.43 -4.307,-7.459 -7.721,-5.487 -9.524,-2.22 -8.335,-0.16 -7.146,1.899 -3.414,1.971 0,0"
           style="fill:#6ac379;fill-opacity:1;fill-rule:nonzero;stroke:none"
           id="path2185" /></g><g
         id="g2187"
         transform="translate(531.8164,192.7734)"><path
           d="m 0,0 c -3.3,-3.774 -8.788,-4.375 -10.098,-3.23 -1.407,1.229 -1.448,6.664 1.852,10.438 3.3,3.774 7.821,5.221 10.098,3.23 C 4.129,8.447 3.299,3.774 0,0"
           style="fill:#6ac379;fill-opacity:1;fill-rule:nonzero;stroke:none"
           id="path2189" /></g><g
         id="g2191"
         transform="translate(477.6445,183.6299)"><path
           d="m 0,0 c 3.709,-2.142 5.12,-6.643 4.377,-7.93 -0.798,-1.382 -5.346,-2.315 -9.056,-0.174 -3.709,2.142 -5.669,5.693 -4.377,7.93 C -7.764,2.063 -3.71,2.142 0,0"
           style="fill:#6ac379;fill-opacity:1;fill-rule:nonzero;stroke:none"
           id="path2193" /></g><g
         id="g2195"
         transform="translate(503.334,180.6748)"><path
           d="m 0,0 c -3.438,-2.555 -8.129,-2.063 -9.016,-0.869 -0.951,1.28 -0.002,5.825 3.436,8.38 3.438,2.554 7.475,2.943 9.016,0.869 C 4.977,6.307 3.438,2.554 0,0"
           style="fill:#6ac379;fill-opacity:1;fill-rule:nonzero;stroke:none"
           id="path2197" /></g><g
         id="g2199"
         transform="translate(497.3145,193.4902)"><path
           d="m 0,0 c -3.09,-4.343 -8.832,-5.562 -10.339,-4.489 -1.618,1.151 -2.239,6.895 0.851,11.239 3.09,4.344 7.718,6.354 10.339,4.489 C 3.471,9.376 3.09,4.344 0,0"
           style="fill:#6ac379;fill-opacity:1;fill-rule:nonzero;stroke:none"
           id="path2201" /></g><g
         id="g2203"
         transform="translate(499.668,185.0967)"><path
           d="m 0,0 c -4.324,-2.409 -7.58,-7.125 -9.062,-11.738 -0.831,-2.59 -1.14,-5.321 -1.058,-8.033 0.026,-0.856 1.36,-0.86 1.334,0 -0.209,6.894 2.633,13.666 8.251,17.814 0.388,0.287 0.786,0.57 1.209,0.806 C 1.424,-0.734 0.752,0.418 0,0"
           style="fill:#55a361;fill-opacity:1;fill-rule:nonzero;stroke:none"
           id="path2205" /></g><g
         id="g2207"
         transform="translate(475.543,179.0039)"><path
           d="m 0,0 c 4.869,-2.359 9.081,-6.765 11.765,-11.377 1.452,-2.494 2.485,-5.185 3.128,-7.996 0.191,-0.837 1.477,-0.482 1.286,0.354 C 14.356,-11.049 9.198,-4.107 2.295,0.225 1.77,0.554 1.232,0.881 0.674,1.151 -0.096,1.524 -0.772,0.374 0,0"
           style="fill:#55a361;fill-opacity:1;fill-rule:nonzero;stroke:none"
           id="path2209" /></g><g
         id="g2211"
         transform="translate(480.0625,160.1885)"><path
           d="m 0,0 c 3.885,-0.932 7.228,-4.396 8.819,-8.013 0.994,-2.258 1.428,-4.723 1.531,-7.176 0.036,-0.855 1.369,-0.86 1.333,0 -0.175,4.17 -1.323,8.281 -3.996,11.551 C 6.112,-1.713 4.052,-0.175 1.76,0.79 1.305,0.981 0.837,1.171 0.354,1.286 -0.479,1.486 -0.835,0.201 0,0"
           style="fill:#55a361;fill-opacity:1;fill-rule:nonzero;stroke:none"
           id="path2213" /></g><g
         id="g2215"
         transform="translate(531.1514,60.5586)"><path
           d="m 0,0 c 6.012,4.19 11.855,8.938 16.847,14.308 1.745,1.877 3.404,3.875 4.701,6.092 0.434,0.743 -0.718,1.414 -1.152,0.673 C 18.014,17.001 14.485,13.604 11.007,10.47 7.932,7.699 4.701,5.098 1.375,2.634 0.698,2.133 0.019,1.634 -0.673,1.152 -1.372,0.665 -0.706,-0.492 0,0"
           style="fill:#55a361;fill-opacity:1;fill-rule:nonzero;stroke:none"
           id="path2217" /></g><g
         id="g2219"
         transform="translate(560.748,64.2324)"><path
           d="m 0,0 c -1.45,2.849 -2.559,5.913 -3.448,8.977 -1.585,5.456 -2.576,11.601 -0.555,17.075 0.298,0.806 -0.99,1.154 -1.285,0.354 C -7.35,20.826 -6.409,14.517 -4.825,8.938 -3.894,5.657 -2.702,2.372 -1.152,-0.673 -0.763,-1.438 0.389,-0.764 0,0"
           style="fill:#55a361;fill-opacity:1;fill-rule:nonzero;stroke:none"
           id="path2221" /></g><g
         id="g2223"
         transform="translate(545.249,87.7363)"><path
           d="m 0,0 c 4.908,3.216 9.269,8.182 11.403,13.652 0.945,2.419 1.388,5.006 1.26,7.601 -0.043,0.854 -1.376,0.859 -1.334,0 C 11.603,15.746 9.042,10.702 5.477,6.656 3.677,4.613 1.613,2.649 -0.673,1.151 -1.389,0.683 -0.721,-0.473 0,0"
           style="fill:#55a361;fill-opacity:1;fill-rule:nonzero;stroke:none"
           id="path2225" /></g><g
         id="g2227"
         transform="translate(572.1348,85.2539)"><path
           d="m 0,0 c -1.94,1.221 -3.609,3.02 -5.077,4.75 -4.051,4.776 -6.761,10.559 -8.437,16.561 -0.23,0.825 -1.517,0.474 -1.286,-0.355 2.206,-7.9 6.288,-15.876 12.785,-21.111 0.432,-0.349 0.871,-0.7 1.342,-0.996 C 0.056,-1.609 0.726,-0.456 0,0"
           style="fill:#55a361;fill-opacity:1;fill-rule:nonzero;stroke:none"
           id="path2229" /></g><g
         id="g2231"
         transform="translate(545.4883,104.6885)"><path
           d="M 0,0 C 3.528,6.751 5.025,15.34 3.119,22.749 2.905,23.58 1.618,23.228 1.833,22.395 3.647,15.343 2.21,7.104 -1.152,0.673 -1.549,-0.087 -0.398,-0.762 0,0"
           style="fill:#55a361;fill-opacity:1;fill-rule:nonzero;stroke:none"
           id="path2233" /></g><g
         id="g2235"
         transform="translate(567.1797,121.2178)"><path
           d="m 0,0 c -2.123,0.626 -4.187,1.537 -6.154,2.54 -3.873,1.974 -7.685,4.587 -10.164,8.229 -1.527,2.242 -2.42,4.799 -2.48,7.52 -0.018,0.857 -1.352,0.86 -1.334,0 0.209,-9.542 9.306,-15.547 17.304,-18.697 0.812,-0.321 1.636,-0.631 2.474,-0.878 C 0.471,-1.528 0.823,-0.242 0,0"
           style="fill:#55a361;fill-opacity:1;fill-rule:nonzero;stroke:none"
           id="path2237" /></g><g
         id="g2239"
         transform="translate(539.4248,137.834)"><path
           d="m 0,0 c 1.675,1.448 3.074,3.292 4.341,5.091 3.239,4.598 5.52,9.83 6.964,15.255 0.22,0.83 -1.066,1.184 -1.286,0.354 C 8.603,15.377 6.367,10.276 3.189,5.764 1.986,4.056 0.647,2.318 -0.942,0.943 -1.593,0.381 -0.646,-0.56 0,0"
           style="fill:#55a361;fill-opacity:1;fill-rule:nonzero;stroke:none"
           id="path2241" /></g><g
         id="g2243"
         transform="translate(563.9863,140.957)"><path
           d="m 0,0 c -2.176,1.767 -4.039,4.034 -5.691,6.277 -4.172,5.668 -7.063,12.165 -8.671,19.007 -0.197,0.835 -1.483,0.482 -1.285,-0.354 1.63,-6.942 4.571,-13.575 8.804,-19.326 1.72,-2.335 3.634,-4.708 5.9,-6.547 C -0.282,-1.479 0.667,-0.541 0,0"
           style="fill:#55a361;fill-opacity:1;fill-rule:nonzero;stroke:none"
           id="path2245" /></g><g
         id="g2247"
         transform="translate(542.5273,161.7041)"><path
           d="M 0,0 C 0.333,2.608 0.213,5.328 -0.114,7.928 -0.74,12.899 -2.438,17.782 -5.881,21.516 -6.465,22.148 -7.405,21.203 -6.824,20.573 -1.949,15.288 -0.44,6.994 -1.334,0 -1.442,-0.85 -0.107,-0.842 0,0"
           style="fill:#55a361;fill-opacity:1;fill-rule:nonzero;stroke:none"
           id="path2249" /></g><g
         id="g2251"
         transform="translate(565.7266,159)"><path
           d="m 0,0 c -5.436,1.972 -10.798,5.146 -15.026,9.075 -1.843,1.713 -3.472,3.633 -4.72,5.823 -0.425,0.746 -1.577,0.075 -1.151,-0.673 C -16.95,7.3 -9.521,2.639 -2.373,-0.463 -1.707,-0.752 -1.037,-1.038 -0.354,-1.286 0.453,-1.579 0.802,-0.291 0,0"
           style="fill:#55a361;fill-opacity:1;fill-rule:nonzero;stroke:none"
           id="path2253" /></g><g
         id="g2255"
         transform="translate(529.8857,184.9619)"><path
           d="m 0,0 c 3.378,-1.246 6.914,-2.175 10.449,-2.841 4.842,-0.912 11.112,-1.813 15.479,1.098 0.711,0.473 0.044,1.629 -0.673,1.151 C 20.981,-3.44 14.648,-2.344 9.949,-1.388 6.706,-0.728 3.463,0.14 0.354,1.286 -0.452,1.583 -0.8,0.295 0,0"
           style="fill:#55a361;fill-opacity:1;fill-rule:nonzero;stroke:none"
           id="path2257" /></g><g
         id="g2259"
         transform="translate(526.7051,197.0508)"><path
           d="m 0,0 c -0.135,-0.886 -0.495,-1.495 -0.955,-2.271 -1.323,-2.24 -3.301,-4.082 -5.382,-5.609 -2.002,-1.469 -4.17,-2.693 -6.402,-3.772 -0.773,-0.374 -0.097,-1.525 0.673,-1.153 3.573,1.729 7.071,3.857 9.84,6.737 1.347,1.399 2.556,3.007 3.251,4.836 0.108,0.281 0.215,0.578 0.261,0.878 C 1.415,0.485 0.13,0.848 0,0"
           style="fill:#55a361;fill-opacity:1;fill-rule:nonzero;stroke:none"
           id="path2261" /></g><g
         id="g2263"
         transform="translate(513.9658,171.8711)"><path
           d="m 0,0 c -1.956,-0.864 -3.813,-2.027 -5.563,-3.246 -3.706,-2.58 -7.068,-5.75 -9.5,-9.579 -1.592,-2.509 -2.728,-5.29 -3.28,-8.212 -0.158,-0.839 1.127,-1.198 1.286,-0.356 1.623,8.599 8.394,15.171 15.803,19.261 0.63,0.348 1.269,0.69 1.927,0.981 C 1.456,-0.805 0.778,0.345 0,0"
           style="fill:#55a361;fill-opacity:1;fill-rule:nonzero;stroke:none"
           id="path2265" /></g><g
         id="g2267"
         transform="translate(539.5742,119.8838)"><path
           d="m 0,0 c -1.774,1.684 -3.384,3.585 -4.846,5.541 -2.642,3.536 -5.136,7.677 -5.554,12.164 -0.079,0.848 -1.413,0.856 -1.333,0 0.434,-4.669 2.858,-8.947 5.598,-12.652 1.566,-2.116 3.279,-4.181 5.192,-5.995 C -0.32,-1.533 0.624,-0.592 0,0"
           style="fill:#55a361;fill-opacity:1;fill-rule:nonzero;stroke:none"
           id="path2269" /></g><g
         id="g2271"
         transform="translate(505.0107,148.7568)"><path
           d="M 0,0 C 0.767,1.32 1.952,2.499 3.204,3.429 6.18,5.641 9.83,6.266 13.427,5.474 14.264,5.289 14.621,6.574 13.781,6.76 10.614,7.457 7.354,7.224 4.437,5.755 2.576,4.819 0.931,3.433 -0.354,1.799 -0.638,1.438 -0.922,1.069 -1.152,0.673 -1.584,-0.071 -0.432,-0.743 0,0"
           style="fill:#55a361;fill-opacity:1;fill-rule:nonzero;stroke:none"
           id="path2273" /></g><g
         id="g2275"
         transform="translate(517.4473,160.7334)"><path
           d="m 0,0 c 1.299,0.113 2.598,0.34 3.87,0.617 2.31,0.504 4.686,1.228 6.683,2.526 1.07,0.695 2.043,1.58 2.638,2.723 0.397,0.76 -0.753,1.435 -1.151,0.673 C 11.052,4.643 8.921,3.595 6.995,2.893 5.114,2.207 3.141,1.766 1.162,1.476 0.806,1.423 0.43,1.371 0,1.334 -0.849,1.26 -0.856,-0.074 0,0"
           style="fill:#55a361;fill-opacity:1;fill-rule:nonzero;stroke:none"
           id="path2277" /></g><g
         id="g2279"
         transform="translate(526.7725,157.335)"><path
           d="m 0,0 c 0.575,-0.934 1.276,-1.808 2.001,-2.628 1.408,-1.593 3.093,-3.066 5.053,-3.933 1.208,-0.533 2.493,-0.838 3.819,-0.785 0.856,0.035 0.859,1.369 0,1.334 C 7.052,-6.168 3.82,-3.051 1.744,-0.194 1.538,0.089 1.335,0.376 1.151,0.674 0.703,1.403 -0.451,0.734 0,0"
           style="fill:#55a361;fill-opacity:1;fill-rule:nonzero;stroke:none"
           id="path2281" /></g><g
         id="g2283"
         transform="translate(489.3779,166.002)"><path
           d="m 0,0 c 1.239,-5.125 1.544,-10.505 1.384,-15.762 -0.089,-2.892 -0.285,-5.836 -0.821,-8.687 h 1.346 c 1.255,6.908 1.132,14.271 0.083,21.17 -1.055,6.945 -4.879,13.631 -4.408,20.766 0.353,5.323 3.315,9.971 6.684,13.931 0.553,0.65 -0.386,1.598 -0.943,0.943 C 0.339,28.851 -2.352,24.88 -3.351,20.311 -4.085,16.957 -3.785,13.556 -2.971,10.248 -2.12,6.792 -0.836,3.46 0,0"
           style="fill:#55a361;fill-opacity:1;fill-rule:nonzero;stroke:none"
           id="path2285" /></g><g
         id="g2287"
         transform="translate(559.21,102.3594)"><path
           d="m 0,0 c -0.212,4.221 -1.628,8.238 -3.49,11.997 -1.804,3.643 -4.052,7.036 -5.935,10.636 -0.795,1.519 -1.544,3.055 -1.844,4.758 -0.308,1.752 -0.253,3.565 -0.112,5.331 0.701,8.717 3.636,17.233 2.777,26.064 -0.769,7.903 -5.209,15.279 -11.358,20.217 -6.677,5.36 -15.355,7.428 -23.585,4.677 -6.818,-2.279 -11.841,-7.059 -14.974,-13.46 -4.405,-9.001 -5.644,-20.857 -5.165,-30.791 0.004,-0.078 0.009,-0.158 0.013,-0.236 h 1.338 c -0.543,8.234 0.446,17.992 3.084,25.751 2.032,5.978 5.449,11.786 10.98,15.12 7.811,4.708 17.298,4.612 24.967,-0.288 6.723,-4.295 11.981,-11.677 13.198,-19.627 1.322,-8.628 -1.432,-17.218 -2.437,-25.724 -0.372,-3.149 -0.588,-6.571 0.605,-9.581 1.36,-3.431 3.457,-6.561 5.275,-9.756 2.048,-3.598 3.934,-7.341 4.827,-11.41 0.911,-4.146 0.536,-8.288 -0.78,-12.298 -2.416,-7.361 -6.215,-14.222 -8.995,-21.448 -2.997,-7.789 -5.257,-16.245 -4.022,-24.641 0.303,-2.062 0.832,-4.071 1.565,-6.022 0.297,-0.796 1.588,-0.452 1.285,0.355 -6.395,17.045 4.802,33.76 10.66,49.174 C -0.754,-7.599 0.196,-3.888 0,0"
           style="fill:#55a361;fill-opacity:1;fill-rule:nonzero;stroke:none"
           id="path2289" /></g><g
         id="g2291"
         transform="translate(535.29,111.4248)"><path
           d="m 0,0 c -0.945,3.637 -2.998,6.779 -4.795,10.031 -1.563,2.831 -1.686,6.124 -1.693,9.297 -0.009,3.819 0.314,7.636 0.692,11.434 0.583,5.863 1.84,12.641 -2.786,17.322 -5.336,5.4 -14.058,2.239 -18.387,-2.792 -3.133,-3.64 -6.228,-10.115 -7.605,-15.164 h 1.398 c 1.155,3.887 3.412,8.798 5.314,11.743 1.747,2.705 4.06,5.203 7.051,6.522 3.366,1.484 7.682,1.786 10.665,-0.68 4.88,-4.034 3.632,-10.861 3.076,-16.357 -0.356,-3.509 -0.667,-7.03 -0.738,-10.559 -0.06,-3.016 -0.068,-6.246 0.836,-9.157 1.038,-3.344 3.493,-6.173 4.822,-9.418 2.016,-4.924 1.621,-9.913 -0.721,-14.66 -0.378,-0.767 0.771,-1.443 1.152,-0.672 C 0.316,-8.983 1.174,-4.511 0,0"
           style="fill:#55a361;fill-opacity:1;fill-rule:nonzero;stroke:none"
           id="path2293" /></g></g></g></svg>
