<?xml version="1.0" encoding="UTF-8" standalone="no"?>
<!-- Created with Inkscape (http://www.inkscape.org/) -->

<svg
   version="1.1"
   id="svg14644"
   width="151.79576"
   height="297.72107"
   viewBox="0 0 151.79576 297.72107"
   sodipodi:docname="5232993.svg"
   inkscape:version="1.2.2 (732a01da63, 2022-12-09)"
   xmlns:inkscape="http://www.inkscape.org/namespaces/inkscape"
   xmlns:sodipodi="http://sodipodi.sourceforge.net/DTD/sodipodi-0.dtd"
   xmlns="http://www.w3.org/2000/svg"
   xmlns:svg="http://www.w3.org/2000/svg">
  <defs
     id="defs14648" />
  <sodipodi:namedview
     id="namedview14646"
     pagecolor="#ffffff"
     bordercolor="#111111"
     borderopacity="1"
     inkscape:showpageshadow="0"
     inkscape:pageopacity="0"
     inkscape:pagecheckerboard="1"
     inkscape:deskcolor="#d1d1d1"
     showgrid="false"
     inkscape:zoom="0.37971634"
     inkscape:cx="-171.18041"
     inkscape:cy="218.58422"
     inkscape:current-layer="g14652"
     inkscape:window-width="1685"
     inkscape:window-height="999"
     inkscape:window-x="1981"
     inkscape:window-y="0"
     inkscape:window-maximized="0" />
  <g
     id="g14652"
     inkscape:groupmode="layer"
     inkscape:label="Page 1"
     transform="matrix(1.3333333,0,0,-1.3333333,-132.65633,698.57676)">
    <g
       id="g15378"
       transform="translate(100.57672,414.26828)"
       clip-path="none"
       inkscape:export-filename="g15378.svg"
       inkscape:export-xdpi="96"
       inkscape:export-ydpi="96">
      <path
         d="m 0,0 c -0.325,0 -0.648,0.146 -0.861,0.425 -0.364,0.475 -0.274,1.156 0.202,1.52 3.35,2.567 35.666,41.567 52.285,61.831 0.2,0.244 0.496,0.389 0.811,0.396 0.329,0.015 0.618,-0.121 0.83,-0.355 l 55.066,-60.62 c 0.402,-0.443 0.37,-1.129 -0.074,-1.531 -0.442,-0.403 -1.128,-0.37 -1.531,0.073 L 52.506,61.431 C 46.005,53.513 4.785,3.384 0.659,0.223 0.462,0.073 0.23,0 0,0"
         style="fill:#733520;fill-opacity:1;fill-rule:nonzero;stroke:none"
         id="path15380" />
    </g>
    <g
       id="g15382"
       transform="translate(152.98832,481.78288)"
       clip-path="none">
      <path
         d="m 0,0 c -1.046,0 -1.897,-0.851 -1.897,-1.897 0,-1.046 0.851,-1.897 1.897,-1.897 1.046,0 1.897,0.851 1.897,1.897 C 1.897,-0.851 1.046,0 0,0 m 0,-5.421 c -1.943,0 -3.524,1.581 -3.524,3.524 0,1.943 1.581,3.523 3.524,3.523 1.942,0 3.523,-1.58 3.523,-3.523 C 3.523,-3.84 1.942,-5.421 0,-5.421"
         style="fill:#fdce1e;fill-opacity:1;fill-rule:nonzero;stroke:none"
         id="path15384" />
    </g>
    <g
       id="g15386"
       transform="translate(153.29942,482.08858)"
       clip-path="none">
      <path
         d="m 0,0 h -0.007 c -0.599,0.004 -1.081,0.493 -1.077,1.091 l 0.277,39.676 c 0.004,0.596 0.488,1.077 1.084,1.077 H 0.284 C 0.883,41.839 1.365,41.351 1.361,40.752 L 1.084,1.077 C 1.08,0.48 0.596,0 0,0"
         style="fill:#733520;fill-opacity:1;fill-rule:nonzero;stroke:none"
         id="path15388" />
    </g>
    <g
       id="g15390"
       transform="translate(207.83012,417.96168)"
       clip-path="none">
      <path
         d="m 0,0 h -107.124 c -0.598,0 -1.084,-0.485 -1.084,-1.084 0,-24.027 24.514,-43.574 54.646,-43.574 30.132,0 54.646,19.547 54.646,43.574 C 1.084,-0.485 0.599,0 0,0"
         style="fill:#f0b39d;fill-opacity:1;fill-rule:nonzero;stroke:none"
         id="path15392" />
    </g>
    <g
       id="g15394"
       transform="translate(202.12412,397.11058)"
       clip-path="none">
      <path
         d="m 0,0 c -0.275,0.373 -0.756,0.529 -1.198,0.39 -50.752,-16.007 -80.436,2.094 -96.4,20.096 -0.206,0.232 -0.501,0.365 -0.811,0.365 h -3.009 c -0.599,0 -1.084,-0.485 -1.084,-1.084 0,-24.027 24.514,-43.574 54.646,-43.574 19.909,0 38.254,8.64 47.875,22.547 C 0.283,-0.879 0.275,-0.373 0,0"
         style="fill:#d99882;fill-opacity:1;fill-rule:nonzero;stroke:none"
         id="path15396" />
    </g>
    <g
       id="g15398"
       transform="translate(119.23782,357.80778)"
       clip-path="none">
      <path
         d="m 0,0 c -0.138,0 -0.277,0.026 -0.412,0.082 -0.554,0.228 -0.818,0.862 -0.59,1.416 2.924,7.1 2.808,15.013 2.309,21.817 -0.136,1.836 -0.305,3.672 -0.474,5.509 -0.52,5.643 -1.058,11.479 -0.563,17.257 0.331,3.847 1.094,7.002 2.334,9.643 1.569,3.342 4.008,5.982 6.869,7.434 0.534,0.272 1.187,0.058 1.457,-0.476 0.271,-0.534 0.058,-1.186 -0.476,-1.457 C 8.022,59.99 5.932,57.709 4.567,54.803 3.421,52.363 2.743,49.532 2.431,45.895 1.952,40.31 2.48,34.572 2.992,29.023 3.163,27.173 3.333,25.323 3.468,23.475 3.987,16.417 4.099,8.189 1.003,0.672 0.831,0.253 0.426,0 0,0"
         style="fill:#5b6351;fill-opacity:1;fill-rule:nonzero;stroke:none"
         id="path15400" />
    </g>
    <g
       id="g15402"
       transform="translate(108.41022,353.29808)"
       clip-path="none">
      <path
         d="m 0,0 c -0.562,-0.614 -1.125,-1.257 -1.419,-2.036 -0.294,-0.779 -0.268,-1.732 0.272,-2.365 0.723,-0.848 2.109,-0.817 3.059,-0.235 0.95,0.581 1.568,1.565 2.15,2.514 2.086,3.395 4.171,6.791 6.256,10.186 0.323,-4.474 0.909,-9.225 3.756,-12.692 0.629,-0.767 1.4,-1.476 2.357,-1.733 0.958,-0.257 2.126,0.068 2.586,0.946 0.383,0.733 0.191,1.654 -0.242,2.359 -0.433,0.704 -1.074,1.25 -1.662,1.831 C 15.596,0.277 14.44,2.08 13.62,4.044 12.925,5.71 12.546,7.579 10.446,7.86 6.75,8.355 2.186,2.384 0,0"
         style="fill:#758560;fill-opacity:1;fill-rule:nonzero;stroke:none"
         id="path15404" />
    </g>
    <g
       id="g15406"
       transform="translate(108.41022,353.29808)"
       clip-path="none">
      <path
         d="M 0,0 H 0.01 Z M 7.83,6.085 C 5.651,4.804 3.295,2.108 1.837,0.438 1.451,-0.002 1.103,-0.402 0.799,-0.733 0.291,-1.286 -0.183,-1.832 -0.405,-2.419 c -0.182,-0.482 -0.147,-1.008 0.083,-1.279 0.342,-0.399 1.153,-0.329 1.669,-0.013 0.748,0.457 1.303,1.36 1.792,2.157 z m 3.753,-0.099 c 0.363,-3.542 1.113,-7.228 3.328,-9.927 0.631,-0.768 1.22,-1.217 1.801,-1.373 0.538,-0.144 1.155,0.041 1.344,0.402 0.161,0.309 0.079,0.826 -0.204,1.288 -0.275,0.448 -0.695,0.851 -1.139,1.277 l -0.363,0.352 c -1.565,1.549 -2.82,3.441 -3.73,5.621 -0.105,0.251 -0.203,0.506 -0.3,0.76 -0.26,0.679 -0.474,1.209 -0.737,1.6 M 17.084,-7.53 c -0.31,0 -0.624,0.039 -0.933,0.122 -1.033,0.277 -1.987,0.961 -2.916,2.092 C 10.89,-2.459 9.984,1.179 9.543,4.73 L 4.986,-2.689 C 4.4,-3.644 3.67,-4.833 2.478,-5.562 c -1.293,-0.79 -3.293,-0.899 -4.45,0.457 -0.754,0.884 -0.931,2.207 -0.461,3.451 0.357,0.948 1.003,1.699 1.634,2.386 0.293,0.321 0.63,0.707 1.003,1.133 2.431,2.783 6.009,6.878 9.508,7.098 0.247,0.168 0.559,0.23 0.864,0.155 0.191,-0.047 0.36,-0.143 0.495,-0.274 2.054,-0.498 2.726,-2.253 3.274,-3.682 0.089,-0.234 0.179,-0.47 0.276,-0.701 0.799,-1.914 1.894,-3.568 3.254,-4.915 l 0.34,-0.33 c 0.523,-0.501 1.063,-1.021 1.483,-1.704 0.702,-1.141 0.805,-2.423 0.28,-3.429 -0.525,-1.002 -1.677,-1.613 -2.894,-1.613"
         style="fill:#758560;fill-opacity:1;fill-rule:nonzero;stroke:none"
         id="path15408" />
    </g>
    <g
       id="g15410"
       transform="translate(111.21642,368.85128)"
       clip-path="none">
      <path
         d="m 0,0 c -0.662,-0.626 -1.33,-1.277 -1.732,-2.094 -0.402,-0.818 -0.493,-1.846 -0.002,-2.614 0.615,-0.964 1.977,-1.225 3.067,-0.879 1.09,0.347 1.959,1.166 2.737,2.004 3.155,3.4 5.483,7.562 6.729,12.028 -0.558,-4.474 0.974,-9.165 4.066,-12.446 0.639,-0.68 1.38,-1.321 2.284,-1.547 0.905,-0.226 2.002,0.085 2.423,0.917 0.343,0.676 0.162,1.52 -0.247,2.158 -0.409,0.638 -1.015,1.119 -1.593,1.61 C 16.246,0.402 14.885,1.815 13.673,3.346 12.701,4.574 11.708,7.173 10.022,7.465 6.994,7.989 1.974,1.866 0,0"
         style="fill:#758560;fill-opacity:1;fill-rule:nonzero;stroke:none"
         id="path15412" />
    </g>
    <g
       id="g15414"
       transform="translate(111.21642,368.85128)"
       clip-path="none">
      <path
         d="m 0,0 h 0.01 z m 12.033,3.854 c 0.513,-2.643 1.761,-5.139 3.621,-7.112 0.458,-0.487 1.073,-1.067 1.758,-1.239 0.481,-0.119 1.037,0.047 1.192,0.355 0.131,0.258 0.052,0.704 -0.191,1.084 -0.281,0.437 -0.731,0.818 -1.208,1.221 l -0.176,0.149 c -1.531,1.303 -2.946,2.771 -4.206,4.36 -0.272,0.344 -0.527,0.75 -0.79,1.182 M 8.951,6.297 C 6.916,5.637 3.808,2.381 2.199,0.695 1.625,0.095 1.129,-0.425 0.745,-0.788 v -0.001 c -0.641,-0.604 -1.196,-1.156 -1.504,-1.783 -0.278,-0.566 -0.303,-1.176 -0.062,-1.552 0.336,-0.526 1.192,-0.632 1.825,-0.429 0.857,0.272 1.598,0.982 2.271,1.708 2.456,2.646 4.39,5.769 5.676,9.142 M 0.387,-6.813 c -1.154,0 -2.356,0.457 -3.035,1.521 -0.65,1.017 -0.672,2.425 -0.057,3.676 0.505,1.029 1.346,1.824 1.96,2.404 0.364,0.343 0.833,0.836 1.375,1.404 3.251,3.406 6.434,6.462 9.081,6.389 0.015,0.052 0.029,0.104 0.043,0.156 0.154,0.546 0.703,0.879 1.258,0.771 0.557,-0.112 0.933,-0.634 0.863,-1.197 -0.023,-0.189 -0.043,-0.379 -0.059,-0.569 0.812,-0.691 1.422,-1.695 1.95,-2.563 0.271,-0.448 0.527,-0.87 0.757,-1.161 1.171,-1.479 2.487,-2.844 3.912,-4.055 l 0.169,-0.144 c 0.552,-0.466 1.177,-0.994 1.634,-1.707 0.668,-1.042 0.783,-2.281 0.301,-3.234 -0.706,-1.392 -2.374,-1.797 -3.652,-1.479 -1.233,0.309 -2.15,1.154 -2.812,1.856 C 12,-2.541 10.586,0.228 9.962,3.167 8.648,0.437 6.927,-2.098 4.865,-4.32 3.99,-5.263 2.996,-6.195 1.662,-6.62 1.265,-6.746 0.83,-6.813 0.387,-6.813"
         style="fill:#758560;fill-opacity:1;fill-rule:nonzero;stroke:none"
         id="path15416" />
    </g>
    <g
       id="g15418"
       transform="translate(111.37212,381.90058)"
       clip-path="none">
      <path
         d="m 0,0 c -0.626,-0.568 -1.312,-1.323 -1.096,-2.141 0.171,-0.643 0.885,-1.026 1.55,-1.012 0.666,0.013 1.284,0.337 1.843,0.698 3.662,2.371 5.746,6.483 7.663,10.402 -0.902,-3.694 1.725,-7.87 5.446,-8.656 0.785,-0.166 1.626,-0.193 2.367,0.115 0.741,0.308 1.354,1.006 1.39,1.807 0.04,0.89 -0.62,1.682 -1.396,2.12 -1.459,0.821 -3.192,0.982 -4.671,1.82 C 11.694,5.948 10.532,7.325 8.771,7.075 5.66,6.634 2.208,2.004 0,0"
         style="fill:#5d6b4b;fill-opacity:1;fill-rule:nonzero;stroke:none"
         id="path15420" />
    </g>
    <g
       id="g15422"
       transform="translate(122.36192,387.16328)"
       clip-path="none">
      <path
         d="m 0,0 c 0.153,-0.741 0.449,-1.476 0.877,-2.157 0.904,-1.436 2.275,-2.44 3.763,-2.754 0.702,-0.149 1.283,-0.13 1.727,0.056 0.404,0.168 0.708,0.527 0.723,0.854 0.017,0.373 -0.331,0.836 -0.845,1.126 -0.624,0.351 -1.341,0.573 -2.1,0.808 C 3.296,-1.804 2.418,-1.532 1.572,-1.053 1.147,-0.812 0.759,-0.537 0.385,-0.27 0.25,-0.175 0.123,-0.084 0,0 m -10.261,-6.066 c -0.811,-0.736 -0.789,-1.011 -0.777,-1.059 0.018,-0.064 0.246,-0.225 0.481,-0.207 0.424,0.008 0.904,0.285 1.275,0.525 2.574,1.665 4.335,4.302 5.785,7.009 -1.631,-0.923 -3.413,-2.809 -4.801,-4.279 -0.704,-0.746 -1.369,-1.45 -1.964,-1.989 z m -0.309,-3.435 c -1.21,0 -2.282,0.758 -2.563,1.821 -0.415,1.559 0.914,2.765 1.414,3.22 h 10e-4 c 0.531,0.482 1.169,1.158 1.844,1.872 2.143,2.269 4.81,5.092 7.504,5.474 0.082,0.011 0.164,0.021 0.245,0.027 0.041,0.083 0.081,0.165 0.121,0.248 0.244,0.497 0.821,0.732 1.343,0.543 C -0.161,3.523 0.131,3.008 0.037,2.492 0.638,2.21 1.167,1.834 1.641,1.498 1.969,1.264 2.297,1.029 2.642,0.833 3.283,0.47 4.013,0.244 4.785,0.004 5.62,-0.254 6.483,-0.521 7.309,-0.985 8.565,-1.694 9.311,-2.886 9.256,-4.099 9.204,-5.277 8.396,-6.36 7.2,-6.857 6.341,-7.214 5.33,-7.272 4.192,-7.033 c -2.059,0.435 -3.936,1.791 -5.15,3.721 -0.392,0.623 -0.7,1.282 -0.92,1.958 -1.518,-2.733 -3.443,-5.472 -6.226,-7.273 -0.612,-0.396 -1.438,-0.853 -2.409,-0.873 -0.019,0 -0.038,-10e-4 -0.057,-10e-4"
         style="fill:#5d6b4b;fill-opacity:1;fill-rule:nonzero;stroke:none"
         id="path15424" />
    </g>
    <g
       id="g15426"
       transform="translate(112.19882,395.47528)"
       clip-path="none">
      <path
         d="m 0,0 c 0.183,-1.037 1.48,-1.56 2.494,-1.278 1.013,0.283 1.769,1.117 2.403,1.957 1.652,2.188 2.886,4.691 3.617,7.334 0.153,-1.442 0.342,-2.895 0.853,-4.251 0.512,-1.356 1.38,-2.623 2.628,-3.359 0.651,-0.384 1.423,-0.616 2.168,-0.486 0.745,0.129 1.441,0.677 1.6,1.416 C 16.205,3.396 9.871,7.36 8.012,7.422 5.649,7.5 -0.422,2.4 0,0"
         style="fill:#5d6b4b;fill-opacity:1;fill-rule:nonzero;stroke:none"
         id="path15428" />
    </g>
    <g
       id="g15430"
       transform="translate(122.15972,401.07838)"
       clip-path="none">
      <path
         d="m 0,0 c 0.107,-0.499 0.243,-0.986 0.42,-1.458 0.48,-1.271 1.248,-2.269 2.164,-2.808 0.508,-0.299 1.015,-0.427 1.432,-0.352 0.351,0.06 0.67,0.314 0.726,0.576 C 4.764,-3.25 2.103,-1.131 0,0 m -8.893,-5.415 c 0.023,-0.131 0.139,-0.229 0.232,-0.288 0.254,-0.159 0.617,-0.211 0.903,-0.133 0.722,0.201 1.33,0.904 1.828,1.565 1.054,1.395 1.938,2.948 2.614,4.579 -1.28,-0.647 -3.024,-1.954 -4.304,-3.428 -1.103,-1.271 -1.315,-2.057 -1.273,-2.295 m 0.85,-2.627 c -0.623,0 -1.248,0.173 -1.774,0.505 -0.656,0.413 -1.086,1.034 -1.212,1.746 -0.199,1.131 0.397,2.508 1.772,4.093 1.805,2.08 4.795,4.278 6.829,4.569 0.19,0.404 0.618,0.658 1.07,0.619 0.518,-0.042 0.934,-0.448 0.989,-0.965 0,-0.002 0,-0.003 0,-0.004 C 1.776,1.696 4.745,-0.312 6.043,-1.974 6.751,-2.88 7.027,-3.729 6.863,-4.497 6.619,-5.632 5.625,-6.54 4.388,-6.755 3.206,-6.959 2.155,-6.53 1.483,-6.134 c -1.717,1.012 -2.629,2.685 -3.091,3.91 -0.074,0.194 -0.14,0.39 -0.202,0.587 -0.665,-1.394 -1.469,-2.721 -2.389,-3.941 -0.717,-0.95 -1.632,-1.972 -2.977,-2.347 -0.282,-0.078 -0.574,-0.117 -0.867,-0.117"
         style="fill:#5d6b4b;fill-opacity:1;fill-rule:nonzero;stroke:none"
         id="path15432" />
    </g>
    <g
       id="g15434"
       transform="translate(161.99372,328.72528)"
       clip-path="none">
      <path
         d="M 0,0 C -0.117,0 -0.236,0.02 -0.353,0.06 -0.919,0.255 -1.22,0.872 -1.025,1.438 5.501,20.371 7.138,36.483 3.977,50.695 3.144,54.441 1.931,58.223 0.758,61.88 c -2.382,7.425 -4.843,15.102 -4.346,23.052 0.241,3.859 1.555,6.544 3.799,7.766 0.526,0.286 1.184,0.093 1.471,-0.434 C 1.968,91.738 1.773,91.08 1.248,90.793 -0.718,89.724 -1.29,86.942 -1.424,84.796 -1.896,77.254 0.396,70.108 2.823,62.542 4.01,58.838 5.239,55.009 6.093,51.167 9.344,36.551 7.686,20.054 1.025,0.732 0.871,0.282 0.45,0 0,0"
         style="fill:#5b6351;fill-opacity:1;fill-rule:nonzero;stroke:none"
         id="path15436" />
    </g>
    <g
       id="g15438"
       transform="translate(178.39902,311.87078)"
       clip-path="none">
      <path
         d="m 0,0 c -0.255,3.451 -2.632,6.172 -4.582,7.848 -1.058,0.909 -2.196,1.71 -3.296,2.484 -1.114,0.784 -2.166,1.524 -3.15,2.372 -0.389,0.335 -0.814,0.879 -1.265,1.457 -0.981,1.255 -2.154,2.755 -3.752,3.014 -0.132,0.386 -0.477,0.675 -0.901,0.724 -0.539,0.059 -1.037,-0.281 -1.173,-0.805 l -0.083,-0.318 c -1.658,-0.862 -3.079,-2.846 -4.254,-4.487 -0.402,-0.562 -0.782,-1.093 -1.097,-1.47 -1.886,-2.254 -3.767,-4.511 -5.643,-6.772 -1.745,-2.103 -3.916,-4.719 -4.306,-7.981 -0.235,-1.962 0.443,-4.088 1.769,-5.549 1.024,-1.129 2.343,-1.746 3.728,-1.746 0.033,0 0.068,0 0.103,10e-4 1.839,0.04 3.65,1.157 4.842,2.987 0.994,1.522 1.453,3.291 1.859,4.852 l 3.667,14.113 c 0.779,-4.335 2.267,-8.54 4.405,-12.396 2.11,-3.806 4.711,-5.729 7.511,-5.557 1.441,0.086 2.809,0.791 3.851,1.983 C -0.522,-3.822 0.138,-1.861 0,0"
         style="fill:#758560;fill-opacity:1;fill-rule:nonzero;stroke:none"
         id="path15440" />
    </g>
    <g
       id="g15442"
       transform="translate(182.49272,337.70868)"
       clip-path="none">
      <path
         d="m 0,0 c -0.621,1.919 -2.136,3.312 -3.354,4.431 l -7.642,7.025 c -0.296,0.272 -0.594,0.567 -0.898,0.868 -0.659,0.652 -1.41,1.396 -2.259,1.99 -0.011,0.55 -0.017,1.102 -0.021,1.657 -0.004,0.508 -0.361,0.945 -0.857,1.051 -0.499,0.103 -1.001,-0.147 -1.213,-0.608 -0.155,-0.34 -0.312,-0.683 -0.47,-1.026 -0.776,0.099 -1.611,-0.012 -2.507,-0.427 -2.127,-0.983 -4.056,-2.766 -5.923,-4.49 -0.792,-0.731 -1.54,-1.422 -2.262,-2.012 -0.865,-0.707 -1.724,-1.454 -2.588,-2.206 -1.679,-1.462 -3.416,-2.974 -5.214,-4.173 -0.03,-0.02 -0.058,-0.04 -0.085,-0.063 -1.102,-0.9 -4.457,-3.641 -3.389,-6.889 0.668,-2.034 2.779,-3.031 4.658,-3.031 0.13,0 0.26,0.006 0.388,0.015 2.019,0.152 3.719,1.256 4.974,2.202 5.813,4.378 9.448,10.769 12.434,16.996 0.286,-5.887 1.259,-11.37 4.717,-15.692 1.53,-1.911 3.214,-3.025 5.005,-3.311 1.989,-0.319 4.111,0.48 5.412,2.03 C 0.188,-4.132 0.618,-1.91 0,0"
         style="fill:#758560;fill-opacity:1;fill-rule:nonzero;stroke:none"
         id="path15444" />
    </g>
    <g
       id="g15446"
       transform="translate(155.39952,362.43138)"
       clip-path="none">
      <path
         d="m 0,0 c -0.672,-0.812 -1.359,-1.648 -1.7,-2.646 -0.342,-0.998 -0.27,-2.208 0.452,-2.976 0.772,-0.82 2.094,-0.919 3.139,-0.503 1.046,0.417 1.865,1.252 2.587,2.117 3.94,4.725 5.802,10.795 7.571,16.689 1.109,-4.7 3.455,-9.102 6.738,-12.642 1.688,-1.82 4.386,-3.498 6.487,-2.177 1.697,1.069 1.858,3.628 0.882,5.38 -0.976,1.751 -2.749,2.883 -4.452,3.943 -3.008,1.871 -8.673,7.491 -11.97,4.52 C 6.086,8.418 3.139,3.781 0,0"
         style="fill:#5d6b4b;fill-opacity:1;fill-rule:nonzero;stroke:none"
         id="path15448" />
    </g>
    <g
       id="g15450"
       transform="translate(168.99422,373.56468)"
       clip-path="none">
      <path
         d="m 0,0 c 1.194,-3.847 3.243,-7.397 5.987,-10.357 1.135,-1.224 3.487,-3.018 5.115,-1.996 1.18,0.743 1.217,2.669 0.513,3.933 C 10.75,-6.869 9.043,-5.806 7.537,-4.869 6.879,-4.46 6.116,-3.893 5.308,-3.292 3.699,-2.095 1.739,-0.639 0,0 m -12.759,-11.825 c -0.604,-0.729 -1.228,-1.483 -1.511,-2.306 -0.206,-0.602 -0.218,-1.418 0.217,-1.881 0.457,-0.485 1.326,-0.486 1.949,-0.238 0.858,0.341 1.57,1.103 2.154,1.803 3.351,4.018 5.197,9.225 6.701,14.11 -2.331,-2.127 -4.413,-4.877 -6.428,-7.538 -1.003,-1.323 -2.04,-2.693 -3.082,-3.95 m -0.192,-6.76 c -1.036,0 -2.013,0.377 -2.681,1.087 -0.941,1 -1.206,2.56 -0.689,4.069 0.411,1.2 1.197,2.149 1.891,2.987 0,10e-4 10e-4,10e-4 10e-4,10e-4 1.013,1.22 1.99,2.51 3.024,3.876 2.108,2.784 4.289,5.663 6.818,7.942 0.782,0.704 1.637,1.047 2.533,1.127 0.162,0.087 0.347,0.138 0.542,0.127 0.184,-0.006 0.359,-0.058 0.511,-0.146 2.581,-0.303 5.368,-2.376 7.603,-4.037 0.77,-0.573 1.499,-1.114 2.081,-1.476 1.643,-1.023 3.689,-2.295 4.826,-4.336 1.198,-2.149 1.059,-5.369 -1.252,-6.824 -2.643,-1.662 -5.792,0.128 -7.86,2.356 -2.598,2.802 -4.619,6.094 -5.946,9.662 -1.503,-4.732 -3.404,-9.671 -6.736,-13.666 -0.757,-0.909 -1.709,-1.908 -3.018,-2.429 -0.541,-0.215 -1.103,-0.32 -1.648,-0.32"
         style="fill:#5d6b4b;fill-opacity:1;fill-rule:nonzero;stroke:none"
         id="path15452" />
    </g>
    <g
       id="g15454"
       transform="translate(155.40392,382.46948)"
       clip-path="none">
      <path
         d="m 0,0 c -0.863,-1.307 -1.702,-3.136 -0.65,-4.295 0.719,-0.793 2.039,-0.766 2.953,-0.209 0.914,0.556 1.506,1.508 2.011,2.451 1.923,3.59 3.093,7.58 3.413,11.639 0.048,-2.65 1.333,-5.252 3.407,-6.903 2.074,-1.65 4.898,-2.318 7.491,-1.77 0.622,0.131 1.254,0.343 1.702,0.793 0.447,0.45 0.652,1.193 0.327,1.738 C 20.382,3.899 19.841,4.102 19.343,4.282 17.219,5.049 15.157,5.986 13.181,7.079 11.607,7.949 9.773,9.703 7.836,9.432 4.351,8.943 1.687,2.556 0,0"
         style="fill:#5d6b4b;fill-opacity:1;fill-rule:nonzero;stroke:none"
         id="path15456" />
    </g>
    <g
       id="g15458"
       transform="translate(164.35702,390.73268)"
       clip-path="none">
      <path
         d="m 0,0 c 0.359,-1.847 1.375,-3.553 2.856,-4.732 1.834,-1.459 4.297,-2.043 6.592,-1.558 0.573,0.121 0.94,0.279 1.156,0.497 0.158,0.158 0.19,0.378 0.166,0.419 -0.078,0.13 -0.515,0.288 -0.749,0.373 C 7.856,-4.218 5.73,-3.254 3.704,-2.133 3.28,-1.899 2.839,-1.606 2.384,-1.303 1.588,-0.772 0.773,-0.229 0,0 m -8.953,-8.264 h 0.011 z m 6.399,7.567 c -1.611,-1.328 -3.112,-4.013 -4.195,-5.949 -0.485,-0.868 -0.905,-1.618 -1.299,-2.214 -0.341,-0.517 -1.401,-2.255 -0.752,-2.969 0.304,-0.337 1.045,-0.341 1.587,-0.012 0.686,0.417 1.183,1.226 1.618,2.037 1.512,2.821 2.548,5.933 3.041,9.107 m -5.55,-13.555 c -0.84,0 -1.684,0.283 -2.302,0.965 -0.835,0.92 -1.418,2.642 0.549,5.62 0.349,0.532 0.77,1.283 1.215,2.08 1.695,3.029 3.771,6.741 6.631,7.659 0.206,0.215 0.512,0.345 0.817,0.335 0.172,-0.006 0.334,-0.051 0.476,-0.126 h 0.005 c 1.633,0 3.098,-0.979 4.3,-1.78 0.403,-0.269 0.792,-0.53 1.166,-0.737 1.927,-1.065 3.947,-1.983 6.005,-2.726 0.557,-0.202 1.399,-0.506 1.873,-1.301 0.555,-0.93 0.349,-2.216 -0.489,-3.059 -0.693,-0.699 -1.614,-0.956 -2.246,-1.089 -2.918,-0.618 -6.055,0.124 -8.39,1.983 -0.983,0.782 -1.805,1.747 -2.431,2.824 -0.615,-2.514 -1.543,-4.957 -2.759,-7.224 -0.58,-1.082 -1.272,-2.178 -2.402,-2.866 -0.572,-0.348 -1.293,-0.558 -2.018,-0.558"
         style="fill:#5d6b4b;fill-opacity:1;fill-rule:nonzero;stroke:none"
         id="path15460" />
    </g>
    <g
       id="g15462"
       transform="translate(154.22862,395.56658)"
       clip-path="none">
      <path
         d="M 0,0 C 0.669,0.227 1.221,0.711 1.696,1.234 3.826,3.577 4.697,6.769 5.5,9.831 5.428,7.717 6.406,5.593 8.058,4.272 9.71,2.952 11.998,2.466 14.044,3.002 14.768,3.192 15.563,3.633 15.64,4.378 15.854,6.443 10.916,6.417 9.597,6.91 7.66,7.634 5.839,8.833 3.685,8.253 1.829,7.754 0.284,6.033 -0.912,4.623 -2.067,3.26 -3.628,-1.233 0,0"
         style="fill:#5d6b4b;fill-opacity:1;fill-rule:nonzero;stroke:none"
         id="path15464" />
    </g>
    <g
       id="g15466"
       transform="translate(161.63922,402.21408)"
       clip-path="none">
      <path
         d="m 0,0 c 0.348,-0.583 0.795,-1.105 1.324,-1.528 1.388,-1.11 3.318,-1.518 5.034,-1.068 0.532,0.139 0.787,0.373 0.793,0.438 -0.23,0.52 -2.639,0.889 -3.431,1.011 -0.81,0.124 -1.45,0.221 -1.913,0.394 -0.433,0.162 -0.861,0.346 -1.286,0.53 C 0.344,-0.147 0.171,-0.072 0,0 m -3.813,0.437 c -1.369,-0.532 -2.612,-1.9 -3.683,-3.163 -0.708,-0.836 -1.261,-2.624 -1.057,-3.076 0.022,0.024 0.263,10e-4 0.793,0.181 0.387,0.131 0.782,0.429 1.243,0.936 1.296,1.425 2.1,3.254 2.704,5.122 M -7.411,-6.647 H -7.4 Z M -8.49,-7.939 c -1.041,0 -1.588,0.519 -1.849,0.902 -1.143,1.68 0.388,4.768 1.19,5.713 1.378,1.625 3.025,3.407 5.142,3.977 0.299,0.08 0.591,0.133 0.879,0.162 0.057,0.216 0.113,0.432 0.169,0.643 0.14,0.535 0.662,0.877 1.205,0.798 0.547,-0.08 0.945,-0.557 0.927,-1.109 C -0.833,2.962 -0.83,2.777 -0.817,2.593 -0.04,2.381 0.69,2.066 1.38,1.768 1.773,1.598 2.167,1.427 2.566,1.278 2.819,1.184 3.444,1.088 4.048,0.996 6.247,0.659 9.57,0.15 9.308,-2.381 9.196,-3.464 8.298,-4.329 6.908,-4.694 4.541,-5.314 1.883,-4.75 -0.03,-3.222 c -0.792,0.633 -1.451,1.428 -1.945,2.316 -0.655,-1.868 -1.54,-3.7 -2.937,-5.237 C -5.364,-6.64 -6.078,-7.34 -7.062,-7.674 -7.619,-7.863 -8.09,-7.939 -8.49,-7.939"
         style="fill:#5d6b4b;fill-opacity:1;fill-rule:nonzero;stroke:none"
         id="path15468" />
    </g>
    <g
       id="g15470"
       transform="translate(213.26472,328.79168)"
       clip-path="none">
      <path
         d="m 0,0 c -0.435,2.189 -2.45,3.383 -4.07,4.342 l -0.141,0.084 c -2.138,1.267 -4.145,2.806 -5.966,4.572 -0.21,0.203 -0.42,0.418 -0.632,0.634 -1.011,1.031 -2.188,2.231 -3.707,2.653 -0.075,0.508 -0.501,0.901 -1.026,0.924 -0.536,0.02 -1.013,-0.355 -1.111,-0.881 -0.115,-0.025 -0.231,-0.056 -0.348,-0.091 -4.386,-1.301 -8.501,-9.485 -9.061,-13.421 -0.24,-1.679 -0.033,-3.209 0.599,-4.424 0.823,-1.584 2.393,-2.603 4.006,-2.603 h 0.033 c 1.674,0.015 3.279,1.104 4.192,2.842 0.742,1.417 0.937,2.99 1.109,4.377 l 0.768,6.187 c 0.803,-2.279 1.955,-4.435 3.415,-6.357 1.962,-2.579 4.106,-3.993 6.371,-4.202 1.61,-0.154 3.376,0.559 4.497,1.803 C -0.132,-2.518 0.249,-1.253 0,0"
         style="fill:#758560;fill-opacity:1;fill-rule:nonzero;stroke:none"
         id="path15472" />
    </g>
    <g
       id="g15474"
       transform="translate(205.85602,352.44848)"
       clip-path="none">
      <path
         d="m 0,0 c -0.986,0.834 -2.121,1.34 -3.217,1.83 -0.523,0.233 -1.046,0.465 -1.547,0.736 -2.103,1.139 -3.823,3.063 -4.718,5.28 -0.225,0.555 -0.856,0.822 -1.412,0.599 -0.555,-0.224 -0.823,-0.857 -0.599,-1.411 0.103,-0.256 0.225,-0.501 0.344,-0.748 l -0.143,-0.249 c -0.463,0.264 -1.055,0.171 -1.39,-0.264 l -6.221,-8.093 c -0.632,-0.822 -1.418,-1.844 -1.703,-3.105 -0.364,-1.613 0.27,-3.217 1.543,-3.902 0.45,-0.241 0.912,-0.35 1.372,-0.35 1.505,0 2.989,1.159 3.96,2.58 1.435,2.098 2.439,4.446 3.226,6.814 0.208,-0.804 0.489,-1.604 0.868,-2.375 1.475,-3.002 4.288,-4.966 7.169,-5.001 1.549,0.003 2.897,0.556 3.674,1.577 C 2.653,-4.18 1.707,-1.444 0,0"
         style="fill:#758560;fill-opacity:1;fill-rule:nonzero;stroke:none"
         id="path15476" />
    </g>
    <g
       id="g15478"
       transform="translate(191.24612,398.18818)"
       clip-path="none">
      <path
         d="m 0,0 c -0.479,-0.665 -0.953,-1.546 -0.54,-2.254 0.283,-0.483 0.913,-0.681 1.465,-0.59 0.553,0.09 1.038,0.415 1.466,0.775 2.564,2.158 3.55,5.611 4.406,8.851 -0.681,-3.018 0.589,-6.386 3.094,-8.202 0.653,-0.474 1.407,-0.855 2.213,-0.892 0.806,-0.036 1.665,0.337 2.034,1.055 0.523,1.018 -0.113,2.297 -1.027,2.986 C 12.197,2.418 11.056,2.721 10.04,3.247 8.209,4.194 7.311,6.857 5.188,5.888 3.219,4.988 1.232,1.708 0,0"
         style="fill:#5d6b4b;fill-opacity:1;fill-rule:nonzero;stroke:none"
         id="path15480" />
    </g>
    <g
       id="g15482"
       transform="translate(191.24612,398.18768)"
       clip-path="none">
      <path
         d="m 0,0 h 0.01 z m 7.864,3.606 c 0.363,-1.641 1.303,-3.162 2.663,-4.148 0.598,-0.434 1.145,-0.665 1.625,-0.686 0.442,-0.03 0.875,0.181 1.021,0.466 0.241,0.469 -0.175,1.219 -0.715,1.626 C 11.984,1.221 11.39,1.47 10.76,1.734 10.349,1.906 9.937,2.08 9.542,2.285 8.876,2.628 8.338,3.125 7.864,3.606 M 5.029,4.527 C 3.813,3.609 2.494,1.695 1.576,0.363 1.324,-0.002 1.091,-0.341 0.879,-0.634 V -0.635 C 0.292,-1.447 0.396,-1.705 0.396,-1.707 0.42,-1.736 0.567,-1.805 0.75,-1.774 1.01,-1.731 1.31,-1.562 1.693,-1.238 3.344,0.15 4.282,2.168 5.029,4.527 M 0.652,-3.95 c -0.887,0 -1.708,0.431 -2.128,1.15 -0.559,0.956 -0.358,2.112 0.597,3.434 0.203,0.283 0.427,0.608 0.669,0.959 C 1.144,3.558 2.828,6.001 4.738,6.875 5.11,7.044 5.458,7.139 5.786,7.174 5.979,7.676 6.52,7.967 7.055,7.835 7.621,7.697 7.975,7.137 7.86,6.568 8.347,6.225 8.765,5.792 9.131,5.413 9.603,4.924 10.048,4.463 10.538,4.21 10.881,4.033 11.24,3.884 11.599,3.733 12.324,3.43 13.073,3.116 13.764,2.595 15.043,1.63 15.914,-0.173 15.102,-1.752 14.568,-2.793 13.33,-3.447 12.056,-3.394 11.132,-3.353 10.216,-2.995 9.254,-2.298 7.917,-1.328 6.888,0.035 6.255,1.563 5.534,-0.093 4.549,-1.669 3.089,-2.897 2.651,-3.266 1.969,-3.772 1.099,-3.914 0.95,-3.938 0.8,-3.95 0.652,-3.95"
         style="fill:#5d6b4b;fill-opacity:1;fill-rule:nonzero;stroke:none"
         id="path15484" />
    </g>
    <g
       id="g15486"
       transform="translate(199.08992,335.76728)"
       clip-path="none">
      <path
         d="m 0,0 c -0.494,0 -0.941,0.34 -1.056,0.842 -2.486,10.846 -5.056,22.061 -4.415,33.476 0.277,4.911 1.158,9.804 2.009,14.536 0.421,2.337 0.857,4.754 1.211,7.132 0.893,6 1.621,13.823 -0.706,21.124 -0.598,1.877 -1.897,4.001 -3.557,3.867 -0.594,-0.051 -1.122,0.388 -1.175,0.984 -0.053,0.597 0.387,1.123 0.984,1.176 2.942,0.258 4.932,-2.602 5.813,-5.368 C 1.571,70.042 0.821,61.898 -0.106,55.667 -0.466,53.256 -0.904,50.823 -1.327,48.47 -2.168,43.801 -3.037,38.975 -3.306,34.196 -3.93,23.087 -1.395,12.025 1.058,1.327 1.191,0.743 0.827,0.161 0.243,0.027 0.162,0.008 0.08,0 0,0"
         style="fill:#5b6351;fill-opacity:1;fill-rule:nonzero;stroke:none"
         id="path15488" />
    </g>
    <g
       id="g15490"
       transform="translate(186.07432,367.61248)"
       clip-path="none">
      <path
         d="m 0,0 c -0.827,-0.819 -1.686,-1.691 -1.999,-2.813 -0.313,-1.121 0.152,-2.549 1.268,-2.882 1.119,-0.335 2.222,0.529 3.008,1.393 3.306,3.631 5.231,8.277 7.092,12.821 -0.204,-2.13 -0.363,-4.301 0.087,-6.394 0.449,-2.092 1.593,-4.127 3.452,-5.187 1.387,-0.79 3.542,-0.735 4.171,0.731 0.397,0.926 -0.015,2.029 -0.697,2.77 C 15.701,1.18 14.79,1.658 13.951,2.215 12.408,3.237 9.255,8.159 8.055,7.915 6.894,7.679 5.017,4.972 4.153,4.115 2.769,2.744 1.384,1.372 0,0"
         style="fill:#5d6b4b;fill-opacity:1;fill-rule:nonzero;stroke:none"
         id="path15492" />
    </g>
    <g
       id="g15494"
       transform="translate(196.33262,372.20138)"
       clip-path="none">
      <path
         d="m 0,0 c 0.024,-0.759 0.1,-1.505 0.257,-2.235 0.436,-2.031 1.504,-3.661 2.93,-4.474 0.622,-0.354 1.47,-0.464 2.057,-0.268 0.435,0.146 0.544,0.402 0.58,0.485 0.215,0.5 -0.108,1.183 -0.498,1.608 -0.425,0.462 -1.005,0.826 -1.618,1.212 -0.207,0.13 -0.413,0.26 -0.615,0.394 C 2.329,-2.771 1.431,-1.703 0.392,-0.465 0.271,-0.322 0.14,-0.165 0,0 m -9.495,-5.359 c -0.691,-0.684 -1.474,-1.46 -1.717,-2.334 -0.178,-0.637 0.09,-1.42 0.533,-1.553 0.454,-0.133 1.145,0.261 1.896,1.085 2.461,2.703 4.133,6.008 5.592,9.388 -0.439,-0.476 -0.877,-1.002 -1.144,-1.321 -0.39,-0.468 -0.726,-0.871 -1.008,-1.15 z m -0.994,-6.082 c -0.303,0 -0.575,0.047 -0.811,0.118 -1.754,0.524 -2.451,2.602 -2.001,4.213 0.398,1.427 1.442,2.461 2.28,3.292 v 0 l 4.152,4.114 c 0.227,0.225 0.528,0.589 0.869,0.998 1.391,1.668 2.461,2.867 3.581,3.094 0.185,0.037 0.369,0.041 0.554,0.014 0.221,0.459 0.737,0.705 1.236,0.58 C -0.107,4.854 0.242,4.362 0.19,3.826 0.167,3.587 0.145,3.348 0.124,3.109 0.687,2.544 1.314,1.808 2.052,0.93 2.866,-0.039 3.788,-1.137 4.292,-1.471 4.479,-1.595 4.671,-1.716 4.862,-1.836 5.57,-2.281 6.301,-2.741 6.922,-3.417 7.992,-4.578 8.343,-6.121 7.817,-7.347 7.477,-8.14 6.808,-8.739 5.934,-9.032 4.766,-9.424 3.267,-9.251 2.113,-8.593 c -1.961,1.118 -3.41,3.269 -3.976,5.902 -0.082,0.385 -0.146,0.769 -0.194,1.153 -1.338,-2.859 -2.947,-5.694 -5.123,-8.083 -1.29,-1.418 -2.43,-1.82 -3.309,-1.82"
         style="fill:#5d6b4b;fill-opacity:1;fill-rule:nonzero;stroke:none"
         id="path15496" />
    </g>
    <g
       id="g15498"
       transform="translate(189.35792,382.50508)"
       clip-path="none">
      <path
         d="M 0,0 C -0.339,-0.425 -0.687,-0.87 -0.805,-1.401 -0.923,-1.932 -0.736,-2.572 -0.242,-2.799 0.343,-3.067 1.004,-2.66 1.5,-2.25 4.475,0.206 6.75,3.5 7.992,7.152 7.913,5.248 7.945,3.278 8.706,1.53 9.467,-0.217 11.122,-1.699 13.027,-1.718 14.365,-1.732 15.833,-0.706 15.7,0.625 15.539,2.255 13.592,2.76 12.453,3.53 11.007,4.508 10.092,6.708 8.601,7.394 5.287,8.915 1.628,2.045 0,0"
         style="fill:#5d6b4b;fill-opacity:1;fill-rule:nonzero;stroke:none"
         id="path15500" />
    </g>
    <g
       id="g15502"
       transform="translate(198.40632,388.18238)"
       clip-path="none">
      <path
         d="m 0,0 c 0.014,-1.299 0.16,-2.586 0.652,-3.714 0.557,-1.282 1.806,-2.582 3.337,-2.598 0.472,-0.002 1.032,0.225 1.35,0.571 0.175,0.192 0.253,0.387 0.234,0.582 C 5.514,-4.562 4.89,-4.193 3.868,-3.658 3.485,-3.457 3.114,-3.259 2.798,-3.045 1.994,-2.502 1.383,-1.721 0.792,-0.966 0.523,-0.622 0.261,-0.287 0,0 m -8.2,-6.352 c -0.26,-0.327 -0.529,-0.666 -0.595,-0.961 -0.011,-0.05 -0.011,-0.1 -0.005,-0.141 0.099,0.037 0.28,0.13 0.562,0.363 2.421,1.998 4.382,4.635 5.625,7.533 C -4.2,-0.543 -5.947,-3.113 -7.025,-4.697 -7.477,-5.36 -7.867,-5.934 -8.2,-6.352 m -0.574,-1.187 h 0.011 z m -0.117,-2.112 c -0.294,0 -0.577,0.063 -0.852,0.19 -0.921,0.422 -1.412,1.524 -1.169,2.618 0.174,0.784 0.641,1.37 1.015,1.841 10e-4,0 10e-4,10e-4 10e-4,10e-4 0.282,0.355 0.651,0.896 1.078,1.524 2.112,3.104 5.306,7.793 8.823,6.178 C 1.052,2.221 1.788,1.28 2.5,0.37 3.01,-0.282 3.492,-0.897 4.012,-1.249 4.266,-1.421 4.567,-1.576 4.875,-1.738 6.005,-2.33 7.553,-3.142 7.731,-4.945 7.812,-5.756 7.53,-6.559 6.938,-7.205 6.208,-8.002 5.072,-8.5 3.968,-8.479 c -2.503,0.024 -4.467,1.976 -5.304,3.899 -0.238,0.544 -0.412,1.104 -0.538,1.672 -1.298,-2.219 -2.981,-4.203 -4.983,-5.855 -0.716,-0.591 -1.397,-0.888 -2.034,-0.888"
         style="fill:#5d6b4b;fill-opacity:1;fill-rule:nonzero;stroke:none"
         id="path15504" />
    </g>
  </g>
</svg>
